<svg xmlns="http://www.w3.org/2000/svg" viewBox="0 0 75.86 50"><defs><style>.cls-1{fill:#fff;}.cls-2,.cls-3{fill:#005fb5;}.cls-3,.cls-4{opacity:0.26;}.cls-4{fill:#5756ff;}.cls-5{fill:none;stroke:#005fb5;stroke-linecap:round;stroke-linejoin:round;stroke-width:2px;}</style></defs><title>chapters</title><g id="Layer_2" data-name="Layer 2"><g id="Layer_1-2" data-name="Layer 1"><path class="cls-1" d="M1.53,35.54l4.1-9.43a1,1,0,0,0,0-.76L1.46,14.46H74.39L70.22,25.09a1,1,0,0,0,0,.76l4.12,9.7Z"/><path class="cls-2" d="M72.93,15.46l-3.64,9.27a2,2,0,0,0,0,1.51l3.53,8.3H3.05l3.49-8a2,2,0,0,0,0-1.52L2.91,15.46h70m2.93-2h0Zm0,0H0L4.71,25.72,0,36.54H75.86L71.15,25.46l4.71-12Z"/><polyline class="cls-3" points="18.85 36.54 57.01 36.54 75.86 36.54 71.15 25.46 75.86 13.46 57.01 13.46 18.85 13.46"/><path class="cls-4" d="M4.71,25.72"/><path class="cls-1" d="M34.34,45.58a1,1,0,0,0-.65-.24,1,1,0,0,0-.31.05l-4.5,1.49-2.13-4.24a1,1,0,0,0-.82-.55l-4.73-.35L20.83,37a1,1,0,0,0-.55-.82l-4.24-2.13,1.49-4.5a1,1,0,0,0-.19-1L14.25,25l3.1-3.59a1,1,0,0,0,.19-1l-1.49-4.5,4.24-2.13a1,1,0,0,0,.55-.82l.35-4.73,4.73-.35a1,1,0,0,0,.82-.55l2.13-4.24,4.5,1.49a1,1,0,0,0,.31.05,1,1,0,0,0,.65-.24l3.59-3.1,3.59,3.1a1,1,0,0,0,.65.24,1,1,0,0,0,.31-.05L47,3.12l2.13,4.24a1,1,0,0,0,.82.55l4.73.35L55,13a1,1,0,0,0,.55.82l4.24,2.13-1.49,4.5a1,1,0,0,0,.19,1L61.61,25l-3.1,3.59a1,1,0,0,0-.19,1l1.49,4.5L55.57,36.2A1,1,0,0,0,55,37l-.35,4.73-4.73.35a1,1,0,0,0-.82.55L47,46.88l-4.5-1.49a1,1,0,0,0-.31-.05,1,1,0,0,0-.65.24l-3.59,3.1Z"/><path class="cls-2" d="M37.93,2.64l2.94,2.53a2,2,0,0,0,1.93.38l3.68-1.22,1.75,3.47A2,2,0,0,0,49.87,8.9l3.87.29L54,13.06a2,2,0,0,0,1.09,1.64l3.47,1.75-1.22,3.68a2,2,0,0,0,.38,1.93L60.29,25l-2.53,2.94a2,2,0,0,0-.38,1.93l1.22,3.68L55.12,35.3A2,2,0,0,0,54,36.94l-.29,3.87-3.87.29a2,2,0,0,0-1.64,1.09l-1.75,3.47L42.8,44.44a2,2,0,0,0-1.93.38l-2.94,2.53L35,44.83a2,2,0,0,0-1.93-.38l-3.68,1.22-1.75-3.47A2,2,0,0,0,26,41.1l-3.87-.29-.29-3.87a2,2,0,0,0-1.09-1.64l-3.47-1.75,1.22-3.68a2,2,0,0,0-.38-1.93L15.57,25l2.53-2.94a2,2,0,0,0,.38-1.93l-1.22-3.68,3.47-1.75a2,2,0,0,0,1.09-1.64l.29-3.87L26,8.9a2,2,0,0,0,1.64-1.09l1.75-3.47,3.68,1.22A2,2,0,0,0,35,5.17l2.94-2.53m0-2.64L33.68,3.66,28.36,1.9l-2.52,5-5.59.41-.41,5.59-5,2.52,1.76,5.32L12.93,25l3.66,4.24-1.76,5.32,5,2.52.41,5.59,5.59.41,2.52,5,5.32-1.76L37.93,50l4.24-3.66L47.5,48.1l2.52-5,5.59-.41L56,37.09l5-2.52-1.76-5.32L62.93,25l-3.66-4.24L61,15.43l-5-2.52-.41-5.59L50,6.91l-2.52-5L42.17,3.66,37.93,0Z"/><path class="cls-4" d="M33.68,46.34"/><path class="cls-4" d="M42.17,46.34"/><polyline class="cls-3" points="20.25 7.32 25.84 6.91 28.36 1.9 33.69 3.66 37.93 0 42.17 3.66 47.5 1.9 50.02 6.91 55.61 7.32 56.02 12.91 61.03 15.43 59.27 20.75 62.93 25 59.27 29.25 61.03 34.57 56.02 37.09 55.61 42.68 50.02 43.09"/><path class="cls-4" d="M16.59,29.24"/><path class="cls-5" d="M51.34,25.61A13.41,13.41,0,0,1,37.93,39"/><path class="cls-5" d="M24.51,25.61A13.41,13.41,0,0,1,37.93,12.2"/></g></g></svg>