<svg xmlns="http://www.w3.org/2000/svg" viewBox="0 0 442.15 312.69"><defs><style>.cls-1{fill:#005fb5;opacity:0.26;}.cls-2{fill:#fff;}.cls-3{fill:#337fc4;}.cls-10,.cls-11,.cls-12,.cls-13,.cls-4,.cls-5,.cls-7,.cls-8,.cls-9{fill:none;}.cls-11,.cls-12,.cls-13,.cls-4,.cls-7,.cls-8,.cls-9{stroke:#005fb5;}.cls-10,.cls-11,.cls-13,.cls-4,.cls-5,.cls-8,.cls-9{stroke-miterlimit:10;}.cls-4,.cls-5{stroke-width:7.25px;}.cls-10,.cls-5{stroke:#5756ff;}.cls-6{fill:#a3d4ff;}.cls-12,.cls-7{stroke-linejoin:round;}.cls-7,.cls-8{stroke-width:4.25px;}.cls-9{stroke-width:3.83px;}.cls-10{stroke-width:0.54px;}.cls-11,.cls-12{stroke-width:3.48px;}.cls-13{stroke-width:5.84px;}</style></defs><title>education-training-research</title><g id="Layer_2" data-name="Layer 2"><g id="Layer_1-2" data-name="Layer 1"><circle class="cls-1" cx="388.49" cy="260.84" r="51.84"/><path class="cls-2" d="M262.23,218.84H189.77V208h97.82a10.87,10.87,0,0,1,10.87-10.86V160.87A10.87,10.87,0,0,1,287.59,150h-134a10.87,10.87,0,0,1-10.87,10.86v36.24A10.87,10.87,0,0,1,153.54,208h10.86v18.12H124.56v-94.2h192v94.2H262.23Z"/><path class="cls-3" d="M181,179c-4.1-2.48-8.81-3.42-12.16-2.45l-.64.22a6.67,6.67,0,0,0-.89.42,5.19,5.19,0,0,0-.54.34l-.25.19a4.29,4.29,0,0,0-.47.42,6.14,6.14,0,0,0-1.64,4.47V208H153.54a10.87,10.87,0,0,0-10.87-10.86V160.87A10.87,10.87,0,0,0,153.54,150h134a10.87,10.87,0,0,0,10.87,10.86v36.24A10.87,10.87,0,0,0,287.59,208H189.77V193.49C189.77,186.94,185.79,181.91,181,179Zm55.89,0c0-10-7.29-18.12-16.3-18.12S204.27,169,204.26,179s7.29,18.12,16.3,18.12S236.87,189,236.88,179Z"/><path class="cls-2" d="M262.23,226.09V237c0,16.59-14.49,21.74-14.49,21.74v18.11H178.9v-3.62l39.86-25.36s-.51-13.16-9.37-21.74Z"/><path class="cls-2" d="M262.23,218.84v7.25H209.39c-4.29-4.16-10.53-7.25-19.62-7.25Z"/><polygon class="cls-3" points="254.98 302.17 254.98 302.9 171.66 302.9 171.66 302.17 171.66 277.54 254.98 277.54 254.98 302.17"/><ellipse class="cls-2" cx="220.57" cy="178.98" rx="16.31" ry="18.11"/><path class="cls-2" d="M218.76,247.83,178.9,273.19v-47.1h30.49C218.24,234.67,218.76,247.83,218.76,247.83Z"/><path class="cls-2" d="M209.39,226.09H178.9v-7.25h10.87C198.86,218.84,205.1,221.93,209.39,226.09Z"/><path class="cls-2" d="M189.77,208v10.87H178.9v7.25H164.41V208Z"/><path class="cls-2" d="M181,179c4.8,2.91,8.78,7.94,8.78,14.49V208H164.41V182.62a6.14,6.14,0,0,1,1.64-4.47c.15-.15.3-.28.47-.42l.25-.19c.18-.12.35-.23.54-.34a6.67,6.67,0,0,1,.89-.42l.64-.22C172.18,175.57,176.88,176.51,181,179Z"/><path class="cls-2" d="M178.9,226.09v32.77s-14.49-10.13-14.49-23.71v-9.05Z"/><path class="cls-2" d="M168.2,176.77l.64-.22Z"/><path class="cls-2" d="M166.76,177.53a5.19,5.19,0,0,1,.54-.34C167.12,177.3,166.94,177.41,166.76,177.53Z"/><path class="cls-2" d="M166,178.15a4.29,4.29,0,0,1,.47-.42C166.35,177.86,166.2,178,166,178.15Z"/><line class="cls-4" x1="178.9" y1="273.19" x2="178.9" y2="276.81"/><path class="cls-4" d="M247.74,276.81V258.7s14.49-5.15,14.49-21.74V226.09"/><polyline class="cls-4" points="171.66 302.17 171.66 277.54 171.66 276.81 178.9 276.81 247.74 276.81 254.98 276.81 254.98 277.54 254.98 302.17"/><path class="cls-4" d="M164.41,208H153.54a10.87,10.87,0,0,0-10.87-10.86V160.87A10.87,10.87,0,0,0,153.54,150h134a10.87,10.87,0,0,0,10.87,10.86v36.24A10.87,10.87,0,0,0,287.59,208H189.77"/><polyline class="cls-4" points="164.41 226.09 124.56 226.09 124.56 131.9 316.58 131.9 316.58 226.09 262.23 226.09 209.39 226.09"/><line class="cls-5" x1="180.99" y1="178.99" x2="182.53" y2="178.99"/><line class="cls-4" x1="258.61" y1="178.99" x2="269.48" y2="178.99"/><ellipse class="cls-4" cx="220.57" cy="178.98" rx="16.31" ry="18.11"/><path class="cls-4" d="M218.76,247.83s-.51-13.16-9.37-21.74c-4.29-4.16-10.53-7.25-19.62-7.25V193.49c0-6.55-4-11.58-8.78-14.49-4.1-2.48-8.81-3.42-12.16-2.45l-.64.22a6.67,6.67,0,0,0-.89.42c-.19.11-.37.22-.54.34l-.25.19c-.17.14-.32.28-.47.42a6.14,6.14,0,0,0-1.64,4.47v52.53c0,13.59,14.49,23.71,14.49,23.71v14.33"/><line class="cls-4" x1="182.53" y1="291.31" x2="193.39" y2="291.31"/><circle class="cls-1" cx="220.57" cy="53.67" r="53.67"/><circle class="cls-1" cx="57.53" cy="259.84" r="46"/><path class="cls-2" d="M245.1,62c6-4,2.8-13-3.81-13a7.79,7.79,0,0,0-1.51.15,7.1,7.1,0,0,0-8-8.42,24.5,24.5,0,0,0-5.55-10.63h45.4c7.42,0,14.89,4.52,14.89,17,0,7.83-2.93,13.42-6.38,17H276l-28.75.07A7.19,7.19,0,0,0,245.1,62Z"/><path class="cls-2" d="M247.26,64.16,276,64.09a21.16,21.16,0,0,1-8.57,12.69l-27.53.08a5.49,5.49,0,0,0,0-.55,7.79,7.79,0,0,0-.15-1.51,7.08,7.08,0,0,0,8.49-7.07A6.69,6.69,0,0,0,247.26,64.16Z"/><path class="cls-3" d="M247.26,64.16a6.69,6.69,0,0,1,1,3.57,7.08,7.08,0,0,1-8.49,7.07,7.79,7.79,0,0,1,.15,1.51,5.49,5.49,0,0,1,0,.55h-4.47V72.59h-17v4.33H214a7.6,7.6,0,0,1,.12-2.13,7.79,7.79,0,0,1-1.51.15c-5.53,0-8.67-6.28-6-10.69l12.2,0a8.51,8.51,0,0,0,16.41,0Z"/><path class="cls-3" d="M245.1,62a7.19,7.19,0,0,1,2.16,2.2l-12.12,0a8.52,8.52,0,0,0-8.21-10.74h6.38a49.06,49.06,0,0,0-1.57-12.76,7.1,7.1,0,0,1,8,8.42,7.79,7.79,0,0,1,1.51-.15C247.9,49,251.1,57.93,245.1,62Z"/><path class="cls-3" d="M235.44,76.87h4.47a6.94,6.94,0,0,1-4.47,5.9Z"/><path class="cls-3" d="M226.94,80.13a6.9,6.9,0,0,0,8.5,2.64v19.6L226.94,96l-8.51,6.38V82.77a7.45,7.45,0,0,0,2.74.53A6.84,6.84,0,0,0,226.94,80.13Z"/><path class="cls-3" d="M235.44,76.87v5.89a6.9,6.9,0,0,1-8.5-2.64V76.9Z"/><polygon class="cls-3" points="226.94 76.9 218.43 76.92 218.43 72.59 235.44 72.59 235.44 76.87 226.94 76.9"/><path class="cls-2" d="M235.44,62a8.51,8.51,0,0,1-.3,2.23l-16.41,0A8.51,8.51,0,1,1,235.44,62Z"/><path class="cls-2" d="M218.73,64.23l16.41,0a8.51,8.51,0,0,1-16.41,0Z"/><path class="cls-3" d="M226.94,43.78a6.85,6.85,0,0,1,4.81-3.1,49.06,49.06,0,0,1,1.57,12.76h-17c0-.74,0-1.45,0-2.16a50.39,50.39,0,0,0-.84-8A7.11,7.11,0,0,1,226.94,43.78Z"/><path class="cls-3" d="M226.94,43.78a7.11,7.11,0,0,0-11.51-.45c-1.11-5.8-3.3-10.32-6.64-13.28H226.2a24.5,24.5,0,0,1,5.55,10.63A6.85,6.85,0,0,0,226.94,43.78Z"/><path class="cls-3" d="M226.94,76.9v3.23a6.84,6.84,0,0,1-5.77,3.17,7.45,7.45,0,0,1-2.74-.53V76.92Z"/><path class="cls-3" d="M208.76,62a6.83,6.83,0,0,1-3.17-5.78,7.08,7.08,0,0,1,8.49-7.07l.09.09,2.09,2.09c0,.71,0,1.42,0,2.16h10.63a8.52,8.52,0,0,0-8.2,10.78l-12.2,0A7.32,7.32,0,0,1,208.76,62Z"/><path class="cls-3" d="M226.2,30.06H208.79a15.13,15.13,0,0,0-3.12-2.13l2.13-2.13h8.51A13.3,13.3,0,0,1,226.2,30.06Z"/><path class="cls-3" d="M218.43,76.92v5.84A6.94,6.94,0,0,1,214,76.93Z"/><path class="cls-6" d="M216.27,51.29l-2.09-2.09-.09-.09a7.79,7.79,0,0,1-.15-1.51,6.69,6.69,0,0,1,1.5-4.26A50.39,50.39,0,0,1,216.27,51.29Z"/><path class="cls-2" d="M208.76,62a7.32,7.32,0,0,0-2.23,2.3l-32.09.08h0c7,0,9.57-7.06,9.57-14.89,0-12.25-7.24-18.88-14.52-19.14v-.25h39.28c3.34,3,5.53,7.47,6.64,13.28a6.69,6.69,0,0,0-1.5,4.26,7.79,7.79,0,0,0,.15,1.51,7.08,7.08,0,0,0-8.49,7.07A6.83,6.83,0,0,0,208.76,62Z"/><path class="cls-2" d="M174.45,64.34l32.09-.08c-2.64,4.41.51,10.69,6,10.69a7.79,7.79,0,0,0,1.51-.15,7.6,7.6,0,0,0-.12,2.13l-46.86.13c-5.5-4.12-11.2-9.83-12.28-21.16-1.34-14,5.32-25.6,14.25-25.6h.44c7.28.25,14.52,6.89,14.52,19.14,0,7.83-2.58,14.89-9.57,14.89Z"/><polyline class="cls-7" points="218.43 82.77 218.43 102.37 226.94 95.99 235.44 102.37 235.44 82.77"/><path class="cls-8" d="M214,76.93l-46.86.13c-5.5-4.12-11.2-9.83-12.28-21.16-1.34-14,5.32-25.6,14.25-25.6h.44c7.28.25,14.52,6.89,14.52,19.14,0,7.83-2.58,14.89-9.57,14.89-4.39,0-8.51-4.28-8.51-10.76a18.27,18.27,0,0,1,2.12-8.63h10"/><path class="cls-8" d="M276,64a1.17,1.17,0,0,1,0,.14,21.16,21.16,0,0,1-8.57,12.69l-27.53.08"/><line class="cls-8" x1="208.79" y1="30.06" x2="169.51" y2="30.06"/><path class="cls-8" d="M247.26,64.16,276,64.09h4.1c3.46-3.59,6.38-9.18,6.38-17,0-12.5-7.46-17-14.89-17H226.2"/><polyline class="cls-8" points="173.38 64.34 174.45 64.34 206.54 64.26"/><path class="cls-8" d="M231.74,40.68a24.5,24.5,0,0,0-5.55-10.63,13.3,13.3,0,0,0-9.89-4.26h-8.51l-2.13,2.13a15.13,15.13,0,0,1,3.12,2.13c3.34,3,5.53,7.47,6.64,13.28"/><path class="cls-7" d="M226.94,43.78a6.85,6.85,0,0,1,4.81-3.1,7.1,7.1,0,0,1,8,8.42,7.79,7.79,0,0,1,1.51-.15c6.61,0,9.81,9,3.81,13a7.19,7.19,0,0,1,2.16,2.2,6.69,6.69,0,0,1,1,3.57,7.08,7.08,0,0,1-8.49,7.07,7.79,7.79,0,0,1,.15,1.51,5.49,5.49,0,0,1,0,.55,7.11,7.11,0,0,1-13,3.27,6.84,6.84,0,0,1-5.77,3.17,7.45,7.45,0,0,1-2.74-.53A6.94,6.94,0,0,1,214,76.93a7.6,7.6,0,0,1,.12-2.13,7.79,7.79,0,0,1-1.51.15c-5.53,0-8.67-6.28-6-10.69a7.32,7.32,0,0,1,2.23-2.3,6.83,6.83,0,0,1-3.17-5.78,7.08,7.08,0,0,1,8.49-7.07,7.79,7.79,0,0,1-.15-1.51,6.69,6.69,0,0,1,1.5-4.26A7.11,7.11,0,0,1,226.94,43.78Z"/><polyline class="cls-7" points="214.18 49.19 216.27 51.29 216.3 51.32"/><line class="cls-7" x1="239.69" y1="74.72" x2="237.57" y2="72.59"/><line class="cls-7" x1="239.69" y1="49.19" x2="237.57" y2="51.32"/><line class="cls-7" x1="214.17" y1="74.72" x2="216.3" y2="72.59"/><polyline class="cls-7" points="246.07 61.96 245.1 61.96 241.82 61.96"/><polyline class="cls-7" points="212.05 61.96 208.76 61.96 207.79 61.96"/><polyline class="cls-7" points="226.94 42.81 226.94 43.78 226.94 47.07"/><polyline class="cls-7" points="226.94 81.09 226.94 80.13 226.94 76.9 226.94 76.84"/><path class="cls-7" d="M226.94,53.45A8.52,8.52,0,1,1,218.43,62,8.51,8.51,0,0,1,226.94,53.45Z"/><path class="cls-2" d="M430.66,220.59v61.33H414.47a8.2,8.2,0,0,0-1.07-.67V269.82c0-4.11-3.36-7.06-6.15-7.06h-7.18c-2.79,0-5.83,3-5.83,7.06v11.43a12.35,12.35,0,0,0-5.75-1.25,11.32,11.32,0,0,0-6.81,1.92h-5.53a13.08,13.08,0,0,0-13.63,0H346.33V220.59Zm-21.08,31.83v-4.29c0-2.51-2.67-4.54-5.75-4.54s-5.75,2-5.75,4.53v4.3c0,2.53,2.67,4.59,5.75,4.59S409.58,255,409.58,252.42Z"/><path class="cls-2" d="M426.82,297.45v1.72H407.66v-1.72a7,7,0,0,1,3.94-6.67l1.81.72v-1.43a14.32,14.32,0,0,1,3.83-.49C422.59,289.59,426.82,292.05,426.82,297.45Z"/><path class="cls-2" d="M417.24,287.87v1.72a14.32,14.32,0,0,0-3.83.49v-8.16h1.07A7.06,7.06,0,0,1,417.24,287.87Z"/><path class="cls-2" d="M414.47,281.92h-1.07v-.67A8.2,8.2,0,0,1,414.47,281.92Z"/><path class="cls-2" d="M413.41,290.08v1.43l-1.81-.72A10.06,10.06,0,0,1,413.41,290.08Z"/><path class="cls-2" d="M413.41,281.92v8.16a10.06,10.06,0,0,0-1.81.7l-13.21-5.28a6.64,6.64,0,0,1,2.45-3.58Z"/><path class="cls-2" d="M413.41,281.25v.67H400.84a11.35,11.35,0,0,1,6.82-1.92A12.31,12.31,0,0,1,413.41,281.25Z"/><path class="cls-3" d="M413.41,269.82v11.43a12.31,12.31,0,0,0-5.75-1.25,11.35,11.35,0,0,0-6.82,1.92h-5.53a8.76,8.76,0,0,0-1.06-.67V269.82c0-4.11,3-7.06,5.83-7.06h7.18C410,262.76,413.41,265.71,413.41,269.82Z"/><path class="cls-2" d="M398.39,285.5l13.21,5.28a7,7,0,0,0-3.94,6.67c0-5.4-4.23-7.86-9.59-7.86v-1.72A8.48,8.48,0,0,1,398.39,285.5Z"/><path class="cls-2" d="M409.58,248.13v4.29c0,2.53-2.67,4.59-5.75,4.59s-5.75-2.05-5.75-4.59v-4.3c0-2.5,2.67-4.53,5.75-4.53S409.58,245.62,409.58,248.13Z"/><path class="cls-2" d="M407.66,297.45v1.72H388.49v-1.72c0-5.4,4.23-7.86,9.58-7.86S407.66,292.05,407.66,297.45Z"/><path class="cls-6" d="M395.31,281.92h5.53a6.64,6.64,0,0,0-2.45,3.58l-.72-.29A6.66,6.66,0,0,0,395.31,281.92Z"/><path class="cls-2" d="M398.07,287.87v1.72c-5.35,0-9.58,2.46-9.58,7.86,0-5.4-4.23-7.86-9.58-7.86v-1.72a7.06,7.06,0,0,1,2.77-5.95h12.57v1.92l3.43,1.37A8.43,8.43,0,0,1,398.07,287.87Z"/><path class="cls-2" d="M397.67,285.21l-3.43-1.37v-1.92h1.06A6.66,6.66,0,0,1,397.67,285.21Z"/><path class="cls-2" d="M395.31,281.92h-1.06v-.67A8.76,8.76,0,0,1,395.31,281.92Z"/><path class="cls-2" d="M394.24,281.25v.67H381.68a11.32,11.32,0,0,1,6.81-1.92A12.35,12.35,0,0,1,394.24,281.25Z"/><path class="cls-2" d="M388.49,297.45v1.72H369.32v-1.72c0-5.4,4.23-7.86,9.59-7.86S388.49,292.05,388.49,297.45Z"/><path class="cls-2" d="M378.91,287.87v1.72c-5.35,0-9.59,2.46-9.59,7.86,0-5.4-4.23-7.86-9.58-7.86v-1.72a7.06,7.06,0,0,1,2.77-5.95h13.63A7.06,7.06,0,0,1,378.91,287.87Z"/><path class="cls-2" d="M376.14,281.92H362.51a13.08,13.08,0,0,1,13.63,0Z"/><path class="cls-2" d="M369.32,297.45v1.72H350.16v-1.72c0-5.4,4.23-7.86,9.58-7.86S369.32,292.05,369.32,297.45Z"/><polyline class="cls-9" points="422.99 281.92 430.65 281.92 430.65 220.59 346.33 220.59 346.33 281.92 353.99 281.92"/><line class="cls-9" x1="344.41" y1="301.09" x2="432.57" y2="301.09"/><line class="cls-9" x1="340.58" y1="301.09" x2="334.83" y2="301.09"/><line class="cls-9" x1="442.15" y1="301.09" x2="436.41" y2="301.09"/><line class="cls-10" x1="397.67" y1="285.21" x2="398.39" y2="285.5"/><path class="cls-9" d="M413.41,281.25V269.82c0-4.11-3.36-7.06-6.15-7.06h-7.18c-2.79,0-5.83,3-5.83,7.06v11.43"/><path class="cls-9" d="M403.82,257c-3.08,0-5.75-2.05-5.75-4.59v-4.3c0-2.5,2.67-4.53,5.75-4.53s5.75,2,5.75,4.54v4.29C409.58,255,406.91,257,403.82,257Z"/><polyline class="cls-10" points="350.16 299.17 369.32 299.17 388.49 299.17 407.66 299.17 426.82 299.17"/><path class="cls-9" d="M378.91,287.87a7.06,7.06,0,0,0-2.77-5.95,13.08,13.08,0,0,0-13.63,0,7.06,7.06,0,0,0-2.77,5.95v1.72"/><path class="cls-9" d="M398.07,287.87a8.43,8.43,0,0,0-.4-2.66,6.66,6.66,0,0,0-2.36-3.29,8.76,8.76,0,0,0-1.06-.67,12.35,12.35,0,0,0-5.75-1.25,11.32,11.32,0,0,0-6.81,1.92,7.06,7.06,0,0,0-2.77,5.95v1.72"/><path class="cls-9" d="M417.24,289.59v-1.72a7.06,7.06,0,0,0-2.77-5.95,8.2,8.2,0,0,0-1.07-.67,12.31,12.31,0,0,0-5.75-1.25,11.35,11.35,0,0,0-6.82,1.92,6.64,6.64,0,0,0-2.45,3.58,8.48,8.48,0,0,0-.32,2.37v1.72"/><path class="cls-9" d="M369.32,297.45c0-5.4-4.23-7.86-9.58-7.86s-9.58,2.46-9.58,7.86v1.72"/><path class="cls-9" d="M388.49,297.45c0-5.4-4.23-7.86-9.58-7.86s-9.59,2.46-9.59,7.86v1.72"/><path class="cls-9" d="M407.66,297.45c0-5.4-4.23-7.86-9.59-7.86s-9.58,2.46-9.58,7.86v1.72"/><path class="cls-9" d="M426.82,299.17v-1.72c0-5.4-4.23-7.86-9.58-7.86a14.32,14.32,0,0,0-3.83.49,10.06,10.06,0,0,0-1.81.7,7,7,0,0,0-3.94,6.67v1.72"/><path class="cls-3" d="M66.67,267.23l-6.14,6.14-4.91-4.91-.19-.25a33.51,33.51,0,0,0,5.79-6l.54.09Z"/><rect class="cls-6" x="95.29" y="291.14" width="1.74" height="8.69" transform="translate(-180.78 154.54) rotate(-45)"/><rect class="cls-3" x="88.12" y="294.83" width="8.69" height="8.69" transform="translate(-184.46 153.01) rotate(-45)"/><rect class="cls-6" x="81.77" y="267.2" width="1.74" height="29.54" transform="translate(-175.18 141.02) rotate(-45)"/><rect class="cls-3" x="74.61" y="270.89" width="8.69" height="29.53" transform="translate(-178.87 139.5) rotate(-45)"/><rect class="cls-6" x="87.92" y="298.51" width="1.73" height="8.69" transform="translate(-188.15 151.48) rotate(-45)"/><rect class="cls-6" x="74.4" y="274.58" width="1.73" height="29.53" transform="translate(-182.55 137.97) rotate(-45)"/><polygon class="cls-6" points="67.9 266 72.81 270.91 71.58 272.14 66.67 267.23 67.9 266"/><rect class="cls-3" x="61.71" y="269.28" width="8.69" height="6.95" transform="translate(-173.52 126.6) rotate(-45)"/><polygon class="cls-6" points="60.53 273.37 65.44 278.29 64.21 279.51 59.3 274.6 60.53 273.37"/><path class="cls-3" d="M67.76,242.46a32.89,32.89,0,0,1-6.55,19.76,33.51,33.51,0,0,1-5.79,6,33,33,0,1,1,12.35-25.75Zm-7,0a26.07,26.07,0,1,0-26.08,26.07A26.07,26.07,0,0,0,60.81,242.47Z"/><circle class="cls-2" cx="34.74" cy="242.47" r="26.07"/><line class="cls-11" x1="60.53" y1="273.37" x2="55.61" y2="268.46"/><polyline class="cls-11" points="98.61 299.17 103.53 304.09 97.38 310.23 92.47 305.32"/><line class="cls-11" x1="61.75" y1="262.31" x2="66.67" y2="267.23"/><polygon class="cls-11" points="93.7 291.8 99.84 297.94 98.61 299.17 92.47 305.32 91.24 306.54 85.1 300.4 64.21 279.51 59.3 274.6 60.53 273.37 66.67 267.23 67.9 266 72.81 270.91 93.7 291.8"/><polyline class="cls-11" points="64.21 279.51 65.44 278.29 71.58 272.14 72.81 270.91"/><polyline class="cls-11" points="85.1 300.4 86.32 299.17 92.47 293.03 93.7 291.8"/><path class="cls-12" d="M55.42,268.21a33,33,0,1,1,5.79-6A33.51,33.51,0,0,1,55.42,268.21Z"/><circle class="cls-11" cx="34.74" cy="242.47" r="26.07"/><path class="cls-11" d="M15.9,239a19.13,19.13,0,0,1,18.82-15.65"/><path class="cls-11" d="M53.82,245.93a19.15,19.15,0,0,1-10.39,13.69"/><path class="cls-11" d="M16.3,247.68a19.16,19.16,0,0,1-.72-5.21"/><circle class="cls-13" cx="337.02" cy="88.17" r="12.05"/><circle class="cls-13" cx="67.61" cy="164.1" r="12.05"/></g></g></svg>