<svg xmlns="http://www.w3.org/2000/svg" viewBox="0 0 83.25 51"><defs><style>.cls-1,.cls-3{fill:none;}.cls-1,.cls-2{stroke:#005fb5;}.cls-1,.cls-2,.cls-3{stroke-linecap:round;stroke-linejoin:round;stroke-width:2px;}.cls-2{fill:#fff;}.cls-3{stroke:#5756ff;}.cls-4{fill:#5756ff;}.cls-4,.cls-5{opacity:0.26;}.cls-5{fill:#005fb5;}</style></defs><title>faculty</title><g id="Layer_2" data-name="Layer 2"><g id="Layer_1-2" data-name="Layer 1"><polyline class="cls-1" points="1 50 1 15.71 82.25 15.71 82.25 50"/><line class="cls-1" x1="81.99" y1="25.49" x2="1.84" y2="25.49"/><polyline class="cls-1" points="49.5 26.01 49.5 33.69 81.41 33.69"/><polyline class="cls-1" points="49.5 34.32 49.5 42 81.41 42"/><line class="cls-1" x1="62.72" y1="29.58" x2="69.65" y2="29.58"/><line class="cls-2" x1="62.72" y1="37.27" x2="69.65" y2="37.27"/><rect class="cls-3" x="55.16" y="1.3" width="5.04" height="13.38"/><rect class="cls-3" x="61.46" y="1.3" width="5.04" height="13.38"/><polygon class="cls-3" points="77.3 13.6 72.56 14.99 67.04 2.39 71.78 1 77.3 13.6"/><rect class="cls-3" x="55.16" y="1.3" width="5.04" height="13.38"/><rect class="cls-3" x="61.46" y="1.3" width="5.04" height="13.38"/><polygon class="cls-3" points="77.3 13.6 72.56 14.99 67.04 2.39 71.78 1 77.3 13.6"/><rect class="cls-3" x="55.16" y="1.3" width="5.04" height="13.38"/><rect class="cls-3" x="61.46" y="1.3" width="5.04" height="13.38"/><polygon class="cls-3" points="77.3 13.6 72.56 14.99 67.04 2.39 71.78 1 77.3 13.6"/><rect class="cls-3" x="55.16" y="1.3" width="5.04" height="13.38"/><rect class="cls-1" x="61.46" y="1.3" width="5.04" height="13.38"/><polygon class="cls-3" points="77.3 13.6 72.56 14.99 67.04 2.39 71.78 1 77.3 13.6"/><rect class="cls-1" x="55.16" y="1.3" width="5.04" height="13.38"/><polyline class="cls-4" points="61.46 1.3 66.5 1.3 66.5 14.69"/><polygon class="cls-1" points="77.3 13.6 72.56 14.99 67.04 2.39 71.78 1 77.3 13.6"/><polyline class="cls-5" points="55.16 1.3 60.2 1.3 60.2 14.69"/><polyline class="cls-5" points="49.15 26 82.14 26 82.14 42"/><polyline class="cls-5" points="61.46 1.3 66.5 1.3 66.5 14.69"/><polyline class="cls-5" points="67.04 2.39 71.78 1 77.3 13.6"/><line class="cls-1" x1="9.82" y1="20.86" x2="16.75" y2="20.86"/><path class="cls-1" d="M1.14,16"/><rect class="cls-1" x="1.14" y="16" width="81" height="10"/><polygon class="cls-5" points="82.14 26 59.15 16 82.14 16 82.14 26"/></g></g></svg>