<svg xmlns="http://www.w3.org/2000/svg" viewBox="0 0 165.35 196.02"><defs><style>.cls-1{fill:#202086;}.cls-2,.cls-5{fill:none;}.cls-2{stroke:#202086;stroke-miterlimit:10;stroke-width:5px;}.cls-3{fill:#5756ff;}.cls-4,.cls-6,.cls-7,.cls-8{fill:#fff;}.cls-5{stroke:#5756ff;stroke-linecap:round;stroke-linejoin:round;stroke-width:4px;}.cls-6{font-size:20.63px;}.cls-6,.cls-7{font-family:OpenSans-Bold, Open Sans;}.cls-6,.cls-7,.cls-8{font-weight:700;}.cls-7{font-size:35.48px;}.cls-8{font-size:19.25px;font-family:SignPainter-HouseScriptSemibold, SignPainter;}.cls-9{letter-spacing:-0.01em;}.cls-10{opacity:0.11;}</style></defs><title>Asset 5</title><g id="Layer_2" data-name="Layer 2"><g id="Layer_1-2" data-name="Layer 1"><rect class="cls-1" x="4.9" y="95.49" width="159.57" height="99" rx="5.68" ry="5.68" transform="translate(-2.98 1.78) rotate(-1.19)"/><polyline class="cls-2" points="40.19 97.9 75.36 9.15 118.18 96.29"/><rect class="cls-3" x="2.5" y="93" width="154.57" height="94" rx="3.18" ry="3.18"/><path class="cls-3" d="M153.89,95.5a.68.68,0,0,1,.68.68v87.65a.68.68,0,0,1-.68.68H5.68a.68.68,0,0,1-.68-.68V96.18a.68.68,0,0,1,.68-.68H153.89m0-5H5.68A5.68,5.68,0,0,0,0,96.18v87.65a5.68,5.68,0,0,0,5.68,5.68H153.89a5.68,5.68,0,0,0,5.68-5.68V96.18a5.68,5.68,0,0,0-5.68-5.68Z"/><rect class="cls-3" x="6.06" y="96.5" width="147.45" height="87" rx="4.1" ry="4.1"/><path class="cls-4" d="M149.4,97.5a3.11,3.11,0,0,1,3.1,3.1v78.8a3.11,3.11,0,0,1-3.1,3.1H10.16a3.11,3.11,0,0,1-3.1-3.1V100.6a3.11,3.11,0,0,1,3.1-3.1H149.4m0-2H10.16a5.1,5.1,0,0,0-5.1,5.1v78.8a5.1,5.1,0,0,0,5.1,5.1H149.4a5.1,5.1,0,0,0,5.1-5.1V100.6a5.1,5.1,0,0,0-5.1-5.1Z"/><polyline class="cls-5" points="39.28 92 73.28 4 114.28 92"/><text class="cls-6" transform="translate(81.2 126.96)">WE’RE</text><text class="cls-7" transform="translate(17.7 167.61)">HIRING</text><text class="cls-8" transform="translate(23.39 125.54) rotate(-6)">Come <tspan class="cls-9" x="37.06" y="0">I</tspan><tspan x="40.37" y="0">n</tspan></text><path class="cls-4" d="M74.63,127.63c0-.08,0-.28,0-.25l-.08.33Z"/><path class="cls-4" d="M74.19,127a1.18,1.18,0,0,0-.19.74c.11-.31.12-.18.24-.55.08,0,.12.11.1.24,0-.08.11.08.16-.12s-.2-.28-.34-.08A.49.49,0,0,1,74.19,127Z"/><path class="cls-4" d="M67,126.11l0,0A.08.08,0,0,0,67,126.11Z"/><path class="cls-4" d="M62.54,125.88a.07.07,0,0,0,0-.07S62.53,125.85,62.54,125.88Z"/><path class="cls-4" d="M61.77,125.52l0,0S61.78,125.49,61.77,125.52Z"/><path class="cls-4" d="M67,126.11,66.9,126C66.88,126.11,67,126.08,67,126.11Z"/><path class="cls-4" d="M73.14,127.72a.2.2,0,0,0,.07-.08l-.06,0Z"/><path class="cls-4" d="M69,125.9h0l0-.13Z"/><path class="cls-4" d="M70.51,125.92s-.06.27-.08.39c0-.11.05-.17.08-.19A1.34,1.34,0,0,0,70.51,125.92Z"/><path class="cls-4" d="M72.88,126.56l0,0Z"/><path class="cls-4" d="M67.91,125.8a.56.56,0,0,0,0-.1A.39.39,0,0,0,67.91,125.8Z"/><path class="cls-4" d="M26.44,132.67v0S26.43,132.67,26.44,132.67Z"/><polygon class="cls-4" points="24.39 131.77 24.41 131.75 24.38 131.6 24.39 131.77"/><path class="cls-4" d="M60.36,125.18h0S60.38,125.16,60.36,125.18Z"/><path class="cls-4" d="M47.5,126.22c.17.23-.2.35,0,.6C47.51,126.71,47.69,126.36,47.5,126.22Z"/><path class="cls-4" d="M73.1,127.68H73A.06.06,0,0,0,73.1,127.68Z"/><path class="cls-4" d="M47.54,126.82h0l0,0Z"/><path class="cls-4" d="M57.13,125.45a.54.54,0,0,0,0,.12A.35.35,0,0,0,57.13,125.45Z"/><path class="cls-4" d="M59.55,125.77l-.06,0A.11.11,0,0,0,59.55,125.77Z"/><path class="cls-4" d="M55.89,125.9s0-.06-.09,0l0,0S55.86,125.86,55.89,125.9Z"/><path class="cls-4" d="M54.6,126l0,.05,0,0Z"/><path class="cls-4" d="M30.19,131.58a1.43,1.43,0,0,1-.12-.23C30.14,131.54,30,131.65,30.19,131.58Z"/><path class="cls-4" d="M73.15,127.56c0,.07,0,.1,0,.12h0A.28.28,0,0,0,73.15,127.56Z"/><path class="cls-4" d="M56,128.12l-.21,0A.49.49,0,0,0,56,128.12Z"/><path class="cls-4" d="M39.19,129.71l0,0S39.19,129.74,39.19,129.71Z"/><path class="cls-4" d="M55.15,128.17A.48.48,0,0,0,55,128a.33.33,0,0,0,0,.07Z"/><path class="cls-4" d="M30.07,131.35h0Z"/><path class="cls-4" d="M28.92,132.31c.19,0,0-.37,0-.59.2-.16.17.24.29.4.12-.13.14-.49.25-.5s0,.07,0,.15c.08-.32.44-.12.53-.52a.35.35,0,0,1,0,.08,2.67,2.67,0,0,1-.14-.49c.08,0,.1-.27.19,0-.05,0,0,.1,0,.18l.06-.12c.16.32-.09.15,0,.4.15-.15.28-.48.44-.42.1.32-.28.19,0,.44l-.23-.08c.28.48-.13,0,.14.52.29,0,.26-.24.55-.21,0-.2-.08-.27-.06-.46.31-.42.49.77.68.26,0-.24,0-.66.21-.49l0,.39c.27,0,0-.57.36-.38,0,.16-.18.17-.13.21.24.26.08-.24.22-.27l.1.33c.27-.11.52-.42.82-.55,0,.1,0,.22.07.3a1.46,1.46,0,0,1,1.26,0l.09-.32s.09.12.06.18c.17.08,0-.18,0-.31s.14.14.11.24c.21-.3.64-.67,1-.42l0,.1c.24.07.13-.64.38-.41l0,.06c.49,0,1-.33,1.39,0,0-.43.49.1.42-.48.32.24.26.36.67.49.1,0,.09-.39.2-.47l.06.3.11-.35.15.35.1-.1s-.12-.12-.13-.21c.16-.17.48.13.51.29l.38-.33c0,.12-.05.18-.1.27.18-.35.09.31.26,0,0-.06,0-.18,0-.25a.4.4,0,0,0,.54,0v.21a7.83,7.83,0,0,0,1-.25c-.14-.08-.17-.45-.07-.5l.09.32c0-.21-.13-.1,0-.37.14,0,.15.35.08.47l.15-.14a1.61,1.61,0,0,1,0,.28c0-.21.33.28.37-.08l0,.09a7.91,7.91,0,0,0,.79-.25c0-.28.09-.23.14-.47.23.06.5.25.75.19s0-.24.08-.42c0,.25.3.19.19.39a1.77,1.77,0,0,0,.76-.36c-.06-.1-.11-.14-.1-.23s.18.09.18.21l0,0c.39-.44,1.11.61,1.39,0l0,0,.33-.32c.17,0-.08.2.06.35.34-.47.63,0,.92-.32.33.72.88-.15,1.27.29l0-.17c.07-.18.12.09.18.12,0-.14-.11-.15-.07-.25.72-.29,1.56.12,2.33.21.28,0,.08-.93.47-.54l-.07.34c.53-.45,1.15-.08,1.68-.45,0,.08,0,.18-.08.18.13.23.43,0,.42-.21.09,0,0,.18.09.27s.27-.32.35-.09c0,0,0,.08,0,.1s.36,0,.27-.26c.21.12.39-.15.56,0,.09-.32.36.13.37-.31,0,.45.38.34.5.12,0,.14.12.14.08.33a.25.25,0,0,0,.24-.33c.3.53.53-.46.72.23a5.52,5.52,0,0,1,1.23-.57c0,.45-.44.06-.41.54.37-.2.58-.6,1-.5.1.06,0,.2-.08.28.37-.2.73,0,1.06-.23a.21.21,0,0,1-.07.12c.07,0,.16.06.14-.14l-.06.06c-.11-.3.25-.63.26-.78-.1.59.34.14.17.89a.34.34,0,0,0,.08-.27c.07,0,.09.12,0,.28.24-.12.15-.33.36-.33,0,.1,0,.14-.06.26.11-.2.21-.39.4-.31,0,.06,0,.14,0,.14.31,0,.53-.53.87-.35-.1.43.12.14.14.51l.18-.11-.08-.18c.16,0,.3-.26.44-.14l-.12.15.3-.07-.17-.14c.16-.19,0-.47.2-.37,0,0,.16,0,.25.23h0c.08-.12.16-.24.28-.15s0,.41,0,.49c.08-.31.38-.09.48-.42a.8.8,0,0,0,0,.31l.07-.25c.08.08.09.12.07.28.23,0-.07-.47.2-.27,0,0,0,.06-.06.1.27.11.52-.16.77,0,.07.38-.22.09-.14.41.36-.07.74-.45,1.09-.35l-.06,0c.06-.53.25.27.43,0a.49.49,0,0,0,0,.23c.23.09.49-.12.85-.28l0,.14c.14.12.37.08.51.14,0-.13.13-.11.09-.31.44.79.9-.4,1.29.27,0,0-.12.11-.08.12l.36-.11c0-.23,0-.14-.11-.33s.15-.24.24-.23c-.16.15,0,.37,0,.5,0-.07,0-.15,0-.22.17.42.05-.46.29-.17l0,.12c.1-.06.19-.21.29-.17,0,.27-.11.12-.12.34.14,0,.3-.49.42-.22-.06.07-.15.07-.21.14.13.32.15.24.25.3h0l.23.15-.06-.09c.21-.69.37-.11.63-.56-.26.42-.05.25-.09.55.06.09.14.19.11.27.13-.24.18.2.36-.15,0,.1.12,0,.08.26.15-.07,0-.17,0-.29.25-.32.51.44.86,0,.29-.17.37-.49.64-.64.08.16-.1.35-.1.35.13.15.24.13.38,0a.39.39,0,0,0,0,.27c.11,0,.1-.35.23-.2a2.09,2.09,0,0,1-.13.38c.13-.08.27-.25.41-.33,0,.17-.1.25-.15.36.15-.07.39-.13.46-.39l-.09-.1c.05,0,0,.23,0,.28-.14.2-.17-.11-.17-.2l.1-.06c-.05-.58-.38.07-.57,0l.11-.41-.22.33c0-.11,0-.34.05-.4-.12-.21-.13.14-.23-.1a.07.07,0,0,1,0-.07l-.14.11c0-.09,0-.29.07-.23-.22-.26-.4.29-.47,0l0,0c-.34.12-.05.3-.32.64l-.12-.76-.05.3s-.1,0-.08-.16c-.14.2,0,.13-.07.33-.15-.29-.46.1-.47-.38-.07.23.15.19,0,.34,0-.52-.21.08-.34-.17.06-.27.19-.12.06-.37-.11.45-.29-.11-.42,0,0,.36-.28.14-.5.25,0-.12-.39-.22-.58-.36V126c-.05.37-.25.29-.4.36a.56.56,0,0,1,.13-.4H69a.29.29,0,0,1-.18.21l0-.27c-.19,0-.39.3-.62.11,0,.26.16.72-.09.88,0-.14,0-.38.06-.43s-.08.11-.12.05l.11-.23c-.11-.1-.06.19-.15.17,0-.2-.06-.14,0-.3s.07.08.11,0a.45.45,0,0,1-.25-.31c0,.11,0,.27-.08.29s-.06-.24-.16-.34c0,.14-.16,0-.18.29-.05,0-.06-.14-.08-.22-.1.13-.45,0-.35.34l0,0h0c-.32.29-.65-.18-1-.06V126c-.19.11-.42.06-.55.27-.05,0-.13-.18-.1-.3-.14.07-.16.18-.36,0,.15-.17,0-.15.15-.12-.18-.09-.22-.24-.43,0,.07-.25-.14-.32-.23-.24l.13.18a.44.44,0,0,1-.27,0l.05-.33c-.38-.41-.69.69-1,0-.1.23.21.16.12.44-.17,0-.36-.52-.41-.52-.24-.18-.22.49-.47.36,0,.12.06.44-.12.55-.17,0-.22-.5-.11-.59s.06,0,.06.07.13-.09.06-.22l0,.12c-.09-.12-.33-.11-.27-.3-.13.11-.06.19,0,.26-.23-.17-.35,0-.58-.12,0,.06.07.2,0,.2-.34-.14-.15.23-.37.28-.13-.18,0-.43-.19-.28-.14-.12,0-.31,0-.41-.21.23-.4-.14-.52-.18l.11-.1a.23.23,0,0,1-.18.06l.07.24c-.07,0-.12,0-.12-.14-.06.16.06.39-.07.61-.09-.12-.26.13-.3-.18.27.1,0-.32.19-.37a.13.13,0,0,1-.16,0,.09.09,0,0,1,0-.08c-.27-.28-.11.36-.38.36,0-.18-.07-.34-.11-.3.11,0,.06.29,0,.43-.18-.13-.19.11-.28.09l.11.06c0,.18-.12.16-.24.21,0-.14.11-.1.06-.16-.13.31-.31-.32-.49-.1-.09-.12,0-.33-.1-.41-.2.23-.24-.23-.45,0,.07.24.08.18-.07.42l.36-.18-.22.36c.11,0,.23-.16.29-.12-.1.2-.09.14,0,.34-.16-.35-.29.22-.47,0l0-.59c-.27-.25-.45.32-.79.19l.11.1c0,.24-.21,0-.31.14a.74.74,0,0,0-.12-.39c0,.15-.25,0-.26.39l-.16-.25c-.28-.09-.28.57-.55.52.07-.22-.06-.35.11-.51-.09,0-.17,0-.16.11-.06-.12-.23.28-.32.09,0,.09,0,.3-.13.28a.27.27,0,0,1,0-.1c0,.1-.15.14,0,.35-.3-.6-.75.09-1-.42a2.7,2.7,0,0,1-.58.18c0-.06,0-.1,0-.08-.25-.17-.11.58-.39.39s.13-.18,0-.3c-.08-.65-.32.11-.53-.26l0,0c-.16-.21-.32.27-.55.24a.28.28,0,0,0,0-.1,1.15,1.15,0,0,1-.63.58c0-.26.09-.14,0-.4-.1,0,.06.41-.13.5a1.19,1.19,0,0,1-.27-.52l.18,0c-.12-.35-.24,0-.34,0V126c-.28.07-.25.47-.56.46l0,.12c-.13.4-.16-.21-.3.1l-.08-.39a2.61,2.61,0,0,1-.54.5,2.07,2.07,0,0,1,.43-.66c-.11,0-.37.06-.41.26,0,0,.09-.14.14-.09-.11.32-.27.49-.48.5,0-.77-.58-.15-.8-.72-.36.32-.77,0-1.22.06.22.57-.13,0,0,.64-.1.05-.14,0-.15,0l-.35-.33c-.09-.17.08-.14.06-.28-.23,0-.12-.25-.29-.39.06.21,0,.32-.18.25l.21.26c-.28.36-.33-.48-.62-.13l.08-.2c-.15.13-.61.06-.71.57,0-.07-.1-.23,0-.28-.4,0-.81.63-1.15.37v-.15c-.07.05-.09.3-.2.16s0-.15,0-.16-.16.29-.27.21l.06-.18c-.41-.14-.53.48-.84.63a.67.67,0,0,0-.54-.59v-.06c-.45,0-.7.48-1.09.71-.33-.43-.9-.07-1.35-.27a.39.39,0,0,1,0,.4c-.11-.07-.22.34-.27-.06h0c-.14-.38-.32-.25-.47-.23l.06.53c-.53-.69-1,.46-1.34-.18-.07.15-.2.17-.27.31l0-.28a1.34,1.34,0,0,0-.75.09l0-.21c-.19,0-.09.84-.26.89l-.13-.41c-.33.06-.73-.23-1,.21,0-.06,0-.18,0-.21-.16,0-.65-.16-.48.4-.08-.37-.34,0-.49.23l0-.28c-.08.38-.07.48-.25.61-.06,0-.09-.21,0-.15-.19-.11-.08.28-.3.18l0-.19c-.17,0-.14.1-.19.32s-.33,0-.41-.25c0,.15,0,.37-.16.32a.25.25,0,0,1,0-.19c-.32-.13-.35.41-.6.18a.36.36,0,0,0-.07-.16,1.06,1.06,0,0,1,.39,0c-.05-.25-.24-.26-.17-.63-.11.22-.27.69-.47.61l0-.08v0s-.08,0-.1.07a.29.29,0,0,0-.16,0c-.07-.2-.23-.07-.32-.06.07.27-.06.25.1.46,0,0,0,0,.07-.06s0,0,0,0v0l.22-.07c0,.16-.09.29-.22.16l0,.47c-.21-.36-.49-.51-.57-.74-.24.21-.62.24-.68.8-.06.08-.12-.13-.17-.2s.09-.07.1-.14c-.13.17-.45.15-.4.52-.23-.12,0-.36-.22-.24v-.12c-.67-.44-.64,1.13-1.4.53a.21.21,0,0,1,.1.11c-.75-.16-1.3.63-2.08.29-.21-.05-.17.18-.24.38l-.12-.28-.11.39c-.21.32-.67-.59-.89,0l.1.18c-.14,0-.36.22-.4,0,0,0,0,.22-.06.13l0-.15-.24.34c-.27,0-.13-.61-.49-.55-.11.09-.25.54-.17.63s.16.06.21.21l-.1.11c.1.45.14.94.52,1.17l.12-.33.12.2-.16.06c.15.18.16,0,.2-.16a.48.48,0,0,0,.15.22l.08-.48c.07.17,0,.37.17.43,0-.22-.2-.37-.08-.54.15.18.17.35.23.15a.3.3,0,0,1,0,.25c.06-.17.25-.13.24-.38.17.23.32-.16.42.27,0-.11.09-.38.17-.42,0,.55.35-.06.45.5,0-.49.39-.32.55-.64,0,0,0,.12,0,.1.13,0,.2.13.31.2-.08-.38.09-.52.14-.78.25.33,0,.47.16.81-.09-.31.19-.37.07-.62.17.2.13.09.27.39-.1-.48.09-.11.11-.42.23.19.15.43.3.25C29,132.1,28.92,132.31,28.92,132.31Zm4.23-1.85h0l-.09,0Zm.37-.09-.16,0c0-.09,0-.19,0-.2S33.45,130.31,33.52,130.38Zm-1.2-1.73c.05-.05.08,0,.1.05l-.1.06v0A.79.79,0,0,1,32.32,128.65Z"/><path class="cls-4" d="M32.29,129l0,0,0,.05V129Z"/><path class="cls-4" d="M67.07,126.16h0l0,0Z"/><polygon class="cls-4" points="38.8 129.92 38.79 129.85 38.76 129.91 38.8 129.92"/><path class="cls-4" d="M69.15,127.19a.17.17,0,0,0,0,.07A.22.22,0,0,0,69.15,127.19Z"/><path class="cls-4" d="M70.05,127.29l.12.11A.48.48,0,0,0,70.05,127.29Z"/><path class="cls-4" d="M70.75,127.47a1,1,0,0,0,0-.12h0Z"/><path class="cls-4" d="M59.64,127.65h0C59.55,127.72,59.6,127.7,59.64,127.65Z"/><path class="cls-4" d="M62.94,126.95a.73.73,0,0,1-.11.13C62.89,127.1,62.94,127.11,62.94,126.95Z"/><polygon class="cls-4" points="55.98 128.12 55.98 128.12 55.95 128.12 55.98 128.12"/><path class="cls-4" d="M62.68,127.07a.1.1,0,0,0,.15,0S62.73,127,62.68,127.07Z"/><path class="cls-4" d="M73.76,127.78h0a.18.18,0,0,1,0,0Z"/><path class="cls-4" d="M73.8,127.75l0,0S73.81,127.72,73.8,127.75Z"/><path class="cls-4" d="M73.92,127.66l-.08.07S73.9,127.74,73.92,127.66Z"/><path class="cls-4" d="M72.85,127.59l0,.1A.46.46,0,0,0,72.85,127.59Z"/><path class="cls-4" d="M72.56,127.6c.07,0,.15.23.25.17v-.08C72.78,127.84,72.64,127.43,72.56,127.6Z"/><path class="cls-4" d="M71.46,126.27l.23.1c0-.11-.08-.26,0-.28C71.44,125.74,71.77,126.33,71.46,126.27Z"/><path class="cls-4" d="M70.74,126.07c.13,0,0-.16,0-.22C70.67,126,70.65,126,70.74,126.07Z"/><path class="cls-4" d="M65.41,125.89l0-.26C65.33,125.67,65.42,125.74,65.41,125.89Z"/><polygon class="cls-4" points="64.38 127.21 64.47 127.37 64.52 127.13 64.38 127.21"/><polygon class="cls-4" points="63.79 125.38 63.83 125.35 63.67 125.44 63.79 125.38"/><path class="cls-4" d="M54.81,125.72l0,.31C54.92,126,54.92,125.62,54.81,125.72Z"/><path class="cls-4" d="M51,126.32c-.06-.15-.17-.24-.23-.08S50.93,126.36,51,126.32Z"/><polygon class="cls-4" points="39.38 127.25 39.44 127.13 39.31 127.24 39.38 127.25"/><circle class="cls-5" cx="73.28" cy="6" r="4"/><g class="cls-10"><path class="cls-4" d="M59.61,187c12.12-16.66,72.6-88.15,79.76-94h14.53a3.18,3.18,0,0,1,3.18,3.18v87.65a3.18,3.18,0,0,1-3.18,3.18Z"/><path class="cls-4" d="M153.89,95.5a.68.68,0,0,1,.68.68v87.65a.68.68,0,0,1-.68.68H64.61c16.15-20.95,66.79-80.73,75.71-89h13.57m0-5H138.68c-3.13,0-86.53,99-83.39,99h98.61a5.68,5.68,0,0,0,5.68-5.68V96.18a5.68,5.68,0,0,0-5.68-5.68Z"/></g></g></g></svg>