<svg xmlns="http://www.w3.org/2000/svg" viewBox="0 0 78.15 49.67"><defs><style>.cls-1{fill:#fff;stroke:#005fb5;}.cls-1,.cls-2{stroke-linecap:round;stroke-linejoin:round;stroke-width:2px;}.cls-2{fill:#5756ff;stroke:#fff;}.cls-2,.cls-3{opacity:0.26;}.cls-3{fill:#005fb5;}</style></defs><title>industry</title><g id="Layer_2" data-name="Layer 2"><g id="Layer_1-2" data-name="Layer 1"><path class="cls-1" d="M73.38,27a15.78,15.78,0,0,0,2.28-3.55c-1.28-1.22-2.41-2.61-2.18-3.53s1.9-1.57,3.61-2a15.94,15.94,0,0,0-.24-4.22c-1.76-.24-3.49-.7-3.83-1.57s.62-2.39,1.74-3.75a15.57,15.57,0,0,0-2.68-3.27c-1.56.84-3.23,1.48-4,1s-.9-2.3-.79-4.06A15.94,15.94,0,0,0,63.19,1c-.77,1.59-1.74,3.1-2.68,3.15s-2.08-1.33-3-2.82a15.78,15.78,0,0,0-3.93,1.54C53.86,4.61,54,6.4,53.24,7s-2.46.15-4.11-.5a15.78,15.78,0,0,0-2.28,3.55c1.28,1.22,2.41,2.61,2.18,3.53s-1.9,1.57-3.61,2a15.94,15.94,0,0,0,.24,4.22c1.76.24,3.49.7,3.83,1.57s-.62,2.39-1.74,3.75a15.57,15.57,0,0,0,2.68,3.27c1.56-.84,3.23-1.48,4-1s.9,2.3.79,4.06a15.94,15.94,0,0,0,4.09,1.06c.77-1.59,1.74-3.1,2.68-3.15s2.08,1.33,3,2.82A15.78,15.78,0,0,0,69,30.67c-.32-1.74-.42-3.53.31-4.12S71.74,26.4,73.38,27Z"/><circle class="cls-1" cx="61.12" cy="16.89" r="5.81" transform="translate(3.16 42.6) rotate(-39.37)"/><path class="cls-1" d="M38.65,41.28a21.2,21.2,0,0,0,3.07-4.78C40,34.86,38.47,33,38.79,31.77s2.55-2.11,4.85-2.7a21.42,21.42,0,0,0-.32-5.67c-2.36-.32-4.69-.93-5.15-2.11s.83-3.21,2.34-5a20.92,20.92,0,0,0-3.6-4.39c-2.09,1.13-4.33,2-5.4,1.31s-1.21-3.09-1.07-5.46A21.42,21.42,0,0,0,25,6.29c-1,2.14-2.33,4.16-3.6,4.23s-2.8-1.78-4.07-3.79A21.2,21.2,0,0,0,12,8.8c.42,2.34.56,4.74-.42,5.54s-3.31.2-5.52-.67A21.2,21.2,0,0,0,3,18.45C4.71,20.1,6.24,22,5.92,23.19s-2.55,2.11-4.85,2.7a21.42,21.42,0,0,0,.32,5.67c2.36.32,4.69.93,5.15,2.11s-.83,3.21-2.34,5a20.92,20.92,0,0,0,3.6,4.39c2.09-1.13,4.33-2,5.4-1.31s1.21,3.09,1.07,5.46a21.42,21.42,0,0,0,5.5,1.42c1-2.14,2.33-4.16,3.6-4.23s2.8,1.78,4.07,3.79a21.2,21.2,0,0,0,5.28-2.08c-.42-2.34-.56-4.74.42-5.54S36.44,40.41,38.65,41.28Z"/><circle class="cls-1" cx="22.17" cy="27.63" r="7.8" transform="translate(-12.5 20.33) rotate(-39.37)"/><path class="cls-2" d="M49,13.58"/><path class="cls-3" d="M69,30.67c-.32-1.74-.42-3.53.31-4.12s2.46-.15,4.11.5a15.78,15.78,0,0,0,2.28-3.55c-1.28-1.22-2.41-2.61-2.18-3.53s1.9-1.57,3.61-2a15.94,15.94,0,0,0-.24-4.22c-1.76-.24-3.49-.7-3.83-1.57s.62-2.39,1.74-3.75a15.57,15.57,0,0,0-2.68-3.27c-1.56.84-3.23,1.48-4,1s-.9-2.3-.79-4.06A15.94,15.94,0,0,0,63.19,1c-.77,1.59-1.74,3.1-2.68,3.15s-2.08-1.33-3-2.82a15.78,15.78,0,0,0-3.93,1.54C53.86,4.61,54,6.4,53.24,7"/><path class="cls-3" d="M32.71,46.16c-.42-2.34-.56-4.74.42-5.54s3.31-.2,5.52.67a21.2,21.2,0,0,0,3.07-4.78C40,34.86,38.47,33,38.79,31.77s2.55-2.11,4.85-2.7a21.42,21.42,0,0,0-.32-5.67c-2.36-.32-4.69-.93-5.15-2.11s.83-3.21,2.34-5a20.92,20.92,0,0,0-3.6-4.39c-2.09,1.13-4.33,2-5.4,1.31s-1.21-3.09-1.07-5.46A21.42,21.42,0,0,0,25,6.29c-1,2.14-2.33,4.16-3.6,4.23s-2.8-1.78-4.07-3.79A21.2,21.2,0,0,0,12,8.8c.42,2.34.56,4.74-.42,5.54"/></g></g></svg>