<svg xmlns="http://www.w3.org/2000/svg" viewBox="0 0 74.85 47"><defs><style>.cls-1,.cls-4{fill:#fff;}.cls-2,.cls-3{fill:#005fb5;}.cls-3{opacity:0.26;}.cls-4{stroke:#005fb5;stroke-linecap:round;stroke-linejoin:round;stroke-width:2px;}</style></defs><title>members</title><g id="Layer_2" data-name="Layer 2"><g id="Layer_1-2" data-name="Layer 1"><rect class="cls-1" x="1" y="1" width="72.85" height="45" rx="7.35" ry="7.35"/><path class="cls-2" d="M66.5,2a6.36,6.36,0,0,1,6.35,6.35v30.3A6.36,6.36,0,0,1,66.5,45H8.35A6.36,6.36,0,0,1,2,38.65V8.35A6.36,6.36,0,0,1,8.35,2H66.5m0-2H8.35A8.35,8.35,0,0,0,0,8.35v30.3A8.35,8.35,0,0,0,8.35,47H66.5a8.35,8.35,0,0,0,8.35-8.35V8.35A8.35,8.35,0,0,0,66.5,0Z"/><path class="cls-1" d="M9.75,35a11.73,11.73,0,0,1,6.36-9.47,1,1,0,0,0,.25-1.6,7.28,7.28,0,1,1,10.23,0,1,1,0,0,0,.25,1.6A11.72,11.72,0,0,1,33.19,35Z"/><path class="cls-2" d="M21.47,12.44a6.28,6.28,0,0,1,4.41,10.75,2,2,0,0,0,.49,3.2A10.73,10.73,0,0,1,32,34H10.89a10.73,10.73,0,0,1,5.68-7.58,2,2,0,0,0,.49-3.2,6.28,6.28,0,0,1,4.41-10.75m0-2a8.28,8.28,0,0,0-5.82,14.17A12.76,12.76,0,0,0,8.7,36H34.23a12.76,12.76,0,0,0-6.95-11.36,8.28,8.28,0,0,0-5.82-14.17Z"/><path class="cls-3" d="M18.35,0H66.5a8.35,8.35,0,0,1,8.35,8.35v30.3c0,4.61-4.74,8.35-9.35,8.35"/><line class="cls-4" x1="44.1" y1="11.6" x2="64.99" y2="11.6"/><line class="cls-4" x1="44.1" y1="23.02" x2="64.99" y2="23.02"/><line class="cls-4" x1="44.1" y1="34.43" x2="64.99" y2="34.43"/></g></g></svg>