<svg xmlns="http://www.w3.org/2000/svg" viewBox="0 0 91.08 74.69"><defs><style>.cls-1{fill:#005fb5;opacity:0.26;}.cls-2{fill:none;stroke:#005fb5;stroke-width:2.69px;}</style></defs><title>partner-icon-1</title><g id="Layer_2" data-name="Layer 2"><g id="Layer_1-2" data-name="Layer 1"><polygon class="cls-1" points="64.2 7.66 64.2 18 74.72 18 42.23 49.81 24.15 34.15 0 59.98 14.09 59.98 24.9 48.42 42.65 63.8 80.84 26.42 80.84 34.82 91.08 34.82 91.08 7.66 64.2 7.66"/><path class="cls-2" d="M69.81,66H68.59V56.26h1.22a2.44,2.44,0,0,0,0-4.88H66.43a9.15,9.15,0,1,0-13.51-9.82l1,1.28-4.88,7.32v3.66h1.22a3.66,3.66,0,0,1,3.66,3.66v3.66h1.22a3.66,3.66,0,0,1,3.66,3.66v8.54H73.47V69.69A3.66,3.66,0,0,0,69.81,66Z"/><path class="cls-2" d="M50.28,27l3.66,3.66,4.88-4.88V22.09L47.61,10.66l5.12-5A19.53,19.53,0,0,0,21,20.87V40.4l4.88,3.66v9.76H24.66A3.66,3.66,0,0,0,21,57.48v3.66H19.78a3.66,3.66,0,0,0-3.66,3.66v8.54H58.83V64.8a3.66,3.66,0,0,0-3.66-3.66H53.95V57.48a3.66,3.66,0,0,0-3.66-3.66H49.06V50.16l4.88-7.32-9.76-12.2V27Z"/><path class="cls-2" d="M21,61.14V57.48a3.66,3.66,0,0,1,3.66-3.66h9.76"/><path class="cls-2" d="M44.18,53.82h6.1a3.66,3.66,0,0,1,3.66,3.66v3.66"/><path class="cls-2" d="M38.08,61.14H19.78a3.66,3.66,0,0,0-3.66,3.66v8.54H58.83V64.8a3.66,3.66,0,0,0-3.66-3.66H46.62"/><line class="cls-2" x1="40.52" y1="61.14" x2="42.96" y2="61.14"/><line class="cls-2" x1="36.86" y1="53.82" x2="39.3" y2="53.82"/><polyline class="cls-2" points="44.18 26.97 44.18 30.63 53.95 42.84 49.06 50.16 49.06 53.82"/><path class="cls-2" d="M25.88,53.82V44.06L21,40.4V20.87A19.53,19.53,0,0,1,52.73,5.63L48.16,10.2"/><path class="cls-2" d="M45.4,8.67,58.83,22.09v3.66l-4.88,4.88L50.28,27H41.74a6.1,6.1,0,0,1-6.1-6.1h0"/><path class="cls-2" d="M40.52,6.23A14.64,14.64,0,0,0,25.88,20.87V27"/><path class="cls-2" d="M50.28,73.35H73.47V69.69A3.66,3.66,0,0,0,69.81,66H68.59V56.26h1.22a2.44,2.44,0,0,0,0-4.88H66.43A9.15,9.15,0,1,0,54.56,38"/><line class="cls-2" x1="66.15" y1="51.38" x2="60.05" y2="51.38"/><line class="cls-2" x1="68.59" y1="56.26" x2="62.49" y2="56.26"/><line class="cls-2" x1="68.59" y1="66.02" x2="62.49" y2="66.02"/><path class="cls-2" d="M57.61,42.84a3.66,3.66,0,0,1,3.66-3.66"/></g></g></svg>