<svg id="Layer_1" data-name="Layer 1" xmlns="http://www.w3.org/2000/svg" viewBox="0 0 324.89 78.41"><defs><style>.cls-1{fill:#99ddde;}.cls-2,.cls-3{fill:none;stroke:#003768;}.cls-2{stroke-width:2.69px;}.cls-3{stroke-width:2.41px;}.cls-4{fill:#003768;}</style></defs><title>partner-icons</title><polygon class="cls-1" points="64.2 9.52 64.2 19.86 74.72 19.86 42.23 51.67 24.15 36.01 0 61.84 14.09 61.84 24.9 50.28 42.65 65.66 80.84 28.28 80.84 36.68 91.08 36.68 91.08 9.52 64.2 9.52"/><path class="cls-2" d="M74.27,78.68H73.05V68.92h1.22a2.44,2.44,0,1,0,0-4.88H70.89a9.15,9.15,0,1,0-13.51-9.82l1,1.28-4.88,7.32v3.66h1.22a3.66,3.66,0,0,1,3.66,3.66V73.8h1.22a3.66,3.66,0,0,1,3.66,3.66V86H77.93V82.34A3.66,3.66,0,0,0,74.27,78.68Z" transform="translate(-4.46 -10.79)"/><path class="cls-2" d="M54.75,39.63l3.66,3.66,4.88-4.88V34.75L52.07,23.32l5.12-5A19.53,19.53,0,0,0,25.46,33.53V53.05l4.88,3.66v9.76H29.12a3.66,3.66,0,0,0-3.66,3.66V73.8H24.24a3.66,3.66,0,0,0-3.66,3.66V86H63.29V77.46a3.66,3.66,0,0,0-3.66-3.66H58.41V70.14a3.66,3.66,0,0,0-3.66-3.66H53.53V62.81l4.88-7.32-9.76-12.2V39.63Z" transform="translate(-4.46 -10.79)"/><path class="cls-2" d="M25.46,73.8V70.14a3.66,3.66,0,0,1,3.66-3.66h9.76" transform="translate(-4.46 -10.79)"/><path class="cls-2" d="M48.64,66.47h6.1a3.66,3.66,0,0,1,3.66,3.66V73.8" transform="translate(-4.46 -10.79)"/><path class="cls-2" d="M42.54,73.8H24.24a3.66,3.66,0,0,0-3.66,3.66V86H63.29V77.46a3.66,3.66,0,0,0-3.66-3.66H51.09" transform="translate(-4.46 -10.79)"/><line class="cls-2" x1="40.52" y1="63" x2="42.96" y2="63"/><line class="cls-2" x1="36.86" y1="55.68" x2="39.3" y2="55.68"/><polyline class="cls-2" points="44.18 28.83 44.18 32.49 53.95 44.7 49.06 52.02 49.06 55.68"/><path class="cls-2" d="M30.34,66.47V56.71l-4.88-3.66V33.53A19.53,19.53,0,0,1,57.19,18.28l-4.57,4.57" transform="translate(-4.46 -10.79)"/><path class="cls-2" d="M49.86,21.32,63.29,34.75v3.66l-4.88,4.88-3.66-3.66H46.2a6.1,6.1,0,0,1-6.1-6.1h0" transform="translate(-4.46 -10.79)"/><path class="cls-2" d="M45,18.88A14.64,14.64,0,0,0,30.34,33.53v6.1" transform="translate(-4.46 -10.79)"/><path class="cls-2" d="M54.75,86H77.93V82.34a3.66,3.66,0,0,0-3.66-3.66H73.05V68.92h1.22a2.44,2.44,0,1,0,0-4.88H70.89A9.15,9.15,0,1,0,59,50.61" transform="translate(-4.46 -10.79)"/><line class="cls-2" x1="66.15" y1="53.24" x2="60.05" y2="53.24"/><line class="cls-2" x1="68.59" y1="58.12" x2="62.49" y2="58.12"/><line class="cls-2" x1="68.59" y1="67.88" x2="62.49" y2="67.88"/><path class="cls-2" d="M62.07,55.49a3.66,3.66,0,0,1,3.66-3.66" transform="translate(-4.46 -10.79)"/><path class="cls-1" d="M169.45,58.14V52.33l-5.25-.43a15.61,15.61,0,0,0-2.07-5.28l3.5-4.08-4.17-4.11-4,3.35a16.11,16.11,0,0,0-5.26-2.29l-.45-5.33h-5.9l-.44,5.17a16.08,16.08,0,0,0-5.36,2l-4.14-3.45L131.73,42l3.4,4a15.68,15.68,0,0,0-2.32,5.18l-5.41.44v5.82l5.25.43a15.56,15.56,0,0,0,2.07,5.28l-3.5,4.08,4.17,4.11,4-3.35a16.12,16.12,0,0,0,5.26,2.29l.45,5.33H151l.44-5.17a16.16,16.16,0,0,0,5.36-2l4.14,3.45,4.17-4.11-3.4-4A15.68,15.68,0,0,0,164,58.59Zm-21,5.32a8.59,8.59,0,1,1,8.71-8.59A8.65,8.65,0,0,1,148.42,63.46Z" transform="translate(-4.46 -10.79)"/><path class="cls-1" d="M208.73,41.56l5.88-2.1L212.87,33l-6,1.08A18,18,0,0,0,203,28.82l2.68-5.58-5.86-3.33-3.47,4.92a18.54,18.54,0,0,0-6.52-1l-2.09-5.79-6.56,1.76,1.05,5.88a18.51,18.51,0,0,0-5.35,3.86L171.3,27l-3.41,5.81,5,3.39a18,18,0,0,0-1,6.44l-5.88,2.11,1.73,6.46,6-1.08a17.89,17.89,0,0,0,3.87,5.25l-2.68,5.58,5.86,3.33,3.47-4.92a18.56,18.56,0,0,0,6.52,1l2.09,5.79,6.56-1.76-1.05-5.88a18.59,18.59,0,0,0,5.35-3.86l5.63,2.6,3.41-5.81-5-3.39A18.05,18.05,0,0,0,208.73,41.56Zm-16.74,7a6.68,6.68,0,1,1,4.82-8.2A6.73,6.73,0,0,1,192,48.53Z" transform="translate(-4.46 -10.79)"/><path class="cls-3" d="M146.54,88a16.67,16.67,0,1,1,16.82-16.67A16.76,16.76,0,0,1,146.54,88Z" transform="translate(-4.46 -10.79)"/><ellipse class="cls-3" cx="163.33" cy="19.11" rx="18.07" ry="17.91"/><ellipse class="cls-3" cx="163.33" cy="17.49" rx="4.9" ry="4.86"/><path class="cls-3" d="M171.47,33.69h-7.36a4.88,4.88,0,0,0-4.91,4.86v.4a12.57,12.57,0,0,0,17.17,0v-.4A4.88,4.88,0,0,0,171.47,33.69Z" transform="translate(-4.46 -10.79)"/><ellipse class="cls-3" cx="142.07" cy="58.92" rx="4.91" ry="4.86"/><path class="cls-3" d="M155.12,85.58V80a4.88,4.88,0,0,0-4.91-4.86h-7.36A4.88,4.88,0,0,0,138,80v5.61" transform="translate(-4.46 -10.79)"/><path class="cls-3" d="M188.89,88a16.67,16.67,0,1,1,16.82-16.67A16.76,16.76,0,0,1,188.89,88Z" transform="translate(-4.46 -10.79)"/><ellipse class="cls-3" cx="184.43" cy="58.92" rx="4.9" ry="4.86"/><path class="cls-3" d="M197.48,85.58V80a4.88,4.88,0,0,0-4.9-4.86h-7.36a4.88,4.88,0,0,0-4.9,4.86v5.61" transform="translate(-4.46 -10.79)"/><line class="cls-3" x1="163.33" y1="31.34" x2="163.33" y2="46.31"/><line class="cls-3" x1="154.38" y1="49.83" x2="163.04" y2="44.87"/><line class="cls-3" x1="172.28" y1="49.83" x2="163.62" y2="44.87"/><path class="cls-1" d="M311.59,79.45V55.39c.05-.61.08-1.22.07-1.84,0-9.5-6.6-24.18-16.92-28.57l2.73-10c.23-.82-.57-1.64-1.81-1.79s-2.32.45-2.42,1.28c.12-.83-.78-1.58-2-1.64S289,13.47,289,14.3c0-.83-1-1.52-2.23-1.47s-2.14.81-2,1.64c-.1-.83-1.19-1.43-2.42-1.28s-2,1-1.81,1.79l2.73,10c-10.32,4.39-16.93,19.06-16.92,28.56a18,18,0,0,0,.07,1.86v24a2.73,2.73,0,0,0-2.16,2.68v.23a2.72,2.72,0,0,0,2.7,2.73h44.1a2.72,2.72,0,0,0,2.7-2.73v-.23A2.73,2.73,0,0,0,311.59,79.45Z" transform="translate(-4.46 -10.79)"/><path class="cls-4" d="M319.23,52.25a1.32,1.32,0,0,1-.87-.47l-19-22.68a1.32,1.32,0,0,1,.08-1.78l7.75-7.77a1.32,1.32,0,0,1,1.87,1.87l-6.9,6.92,17.34,20.74,7.64-6.45a1.32,1.32,0,1,1,1.7,2l-8.65,7.31a1.32,1.32,0,0,1-1,.31Z" transform="translate(-4.46 -10.79)"/><path class="cls-4" d="M277.94,50.73a4.81,4.81,0,0,1-3.05-1.52,5.85,5.85,0,0,1-.84-6.9c.77-1.33,4.35-4.44,7.34-6.76,6.72-5.22,8.39-5.05,8.94-5,2.18.22,6.18.11,7.68.07h.37a3.88,3.88,0,0,0,1.72-1,1.32,1.32,0,0,1,1.8,1.93,6.12,6.12,0,0,1-3.46,1.69h-.36c-1.69,0-5.64.14-8-.08-.61,0-3,1.29-7.27,4.6a42.07,42.07,0,0,0-6.49,5.86,3.19,3.19,0,0,0,.48,3.75c1.51,1.6,3.92.13,4.39-.18l10.42-6.89a1.32,1.32,0,0,1,1.46,2.2l-10.42,6.89A7.45,7.45,0,0,1,277.94,50.73Z" transform="translate(-4.46 -10.79)"/><path class="cls-4" d="M307.82,60.3a1.32,1.32,0,0,1-.62-2.39,40.7,40.7,0,0,0,4.64-3.7,12.26,12.26,0,0,0,1.93-4.42,12.68,12.68,0,0,1,.86-2.39,1.32,1.32,0,1,1,2.3,1.29,12.43,12.43,0,0,0-.63,1.85c-.53,1.79-1.19,4-2.52,5.46a43.94,43.94,0,0,1-5.07,4.08A1.32,1.32,0,0,1,307.82,60.3Z" transform="translate(-4.46 -10.79)"/><path class="cls-4" d="M309.32,60.91c-1.42-2.08-13.75-14.49-15.15-15.9a1.32,1.32,0,1,0-1.87,1.86c5.43,5.46,13.87,14.1,14.84,15.52,1.35,2,1.94,3.28,1.44,4.84a8.9,8.9,0,0,1-1.5,1.87l-.22-.38a1.17,1.17,0,0,1-2,.12c-.24-.38-.47-.76-.69-1.14l.58,2.47a3,3,0,0,0,.39,1A2.74,2.74,0,0,1,304,73.86a2.92,2.92,0,0,1-3,.34l-5.34-3.76L299.11,76c.55.88-.5,2-1.34,2.57-1,.67-2.37,1-2.87.26l-2.2,1.46a1,1,0,0,1,.12.85,3.74,3.74,0,0,1-1.77,2c-1.11.6-3.92.08-5-.93s-3.58-3.59-3.61-3.62a1.32,1.32,0,1,0-1.9,1.83c.11.11,2.61,2.71,3.72,3.73A8.41,8.41,0,0,0,288.81,86a6.14,6.14,0,0,0,3.5-.53,6.36,6.36,0,0,0,3.06-3.6h0a6,6,0,0,0,3.85-1.08,5.61,5.61,0,0,0,2.64-3.66,5.3,5.3,0,0,0,3.83-1.22,5.62,5.62,0,0,0,2.11-4.11,9,9,0,0,0,3.26-3.65C312,65.25,310.73,63,309.32,60.91Z" transform="translate(-4.46 -10.79)"/><path class="cls-4" d="M294.72,81.67a1.31,1.31,0,0,1-.81-.4l-7.19-7.45a1.32,1.32,0,1,1,1.9-1.83l7.19,7.45a1.32,1.32,0,0,1-1.09,2.23Z" transform="translate(-4.46 -10.79)"/><path class="cls-4" d="M301.06,77.39a1.32,1.32,0,0,1-.8-.38l-7.81-7.9a1.32,1.32,0,1,1,1.88-1.86l7.81,7.9a1.32,1.32,0,0,1-1.08,2.24Z" transform="translate(-4.46 -10.79)"/><path class="cls-4" d="M306.31,71.83a1.31,1.31,0,0,1-.79-.37l-7-6.87a1.32,1.32,0,1,1,1.86-1.88l7,6.87a1.32,1.32,0,0,1-1.07,2.25Z" transform="translate(-4.46 -10.79)"/><path class="cls-4" d="M256.5,52.5a1.32,1.32,0,0,1-.7-.29l-10.67-8.74a1.32,1.32,0,0,1,1.67-2l9.72,8L274.9,30.14l-8.7-7.65a1.32,1.32,0,1,1,1.74-2l9.73,8.56a1.32,1.32,0,0,1,.08,1.9L257.59,52.1A1.32,1.32,0,0,1,256.5,52.5Z" transform="translate(-4.46 -10.79)"/><path class="cls-4" d="M280,36.41l-1.24-.46a34.25,34.25,0,0,0-4.69-1.28l-1.3-.25.5-2.59,1.3.25a36.51,36.51,0,0,1,5.11,1.4l1.24.46Z" transform="translate(-4.46 -10.79)"/><path class="cls-4" d="M261,53a1.32,1.32,0,0,1-1.14-1l-1-3.81a1.32,1.32,0,1,1,2.56-.65l1,3.81A1.32,1.32,0,0,1,261,53Z" transform="translate(-4.46 -10.79)"/><path class="cls-4" d="M276.68,81.07a4.87,4.87,0,0,1-2.55-8.64l2.21-1.79a4.87,4.87,0,1,1,6.12,7.59L280.25,80A4.84,4.84,0,0,1,276.68,81.07Zm3-8.85a2.22,2.22,0,0,0-1.64.48l-2.21,1.79a2.23,2.23,0,1,0,2.8,3.48l2.21-1.79a2.23,2.23,0,0,0-1.17-4Z" transform="translate(-4.46 -10.79)"/><path class="cls-4" d="M271.53,74.7A4.87,4.87,0,0,1,269,66.06l2.21-1.79a4.87,4.87,0,1,1,6.12,7.59l-2.21,1.78A4.84,4.84,0,0,1,271.53,74.7Zm3-8.85a2.22,2.22,0,0,0-1.64.48l-2.21,1.79a2.23,2.23,0,1,0,2.8,3.48l2.21-1.79a2.23,2.23,0,0,0-1.17-4Z" transform="translate(-4.46 -10.79)"/><path class="cls-4" d="M266.84,68.89a4.87,4.87,0,0,1-2.55-8.64l2.21-1.79A4.87,4.87,0,1,1,272.62,66l-2.21,1.79A4.84,4.84,0,0,1,266.84,68.89Zm3-8.85a2.22,2.22,0,0,0-1.64.48L266,62.3a2.23,2.23,0,0,0,2.8,3.47L271,64a2.23,2.23,0,0,0-1.16-4Z" transform="translate(-4.46 -10.79)"/><path class="cls-4" d="M261.42,62.18a4.87,4.87,0,0,1-2.55-8.64l2.21-1.79a4.87,4.87,0,1,1,6.12,7.59L265,61.13A4.84,4.84,0,0,1,261.42,62.18Zm3-8.85a2.22,2.22,0,0,0-1.64.48l-2.21,1.79a2.23,2.23,0,1,0,2.8,3.48l2.21-1.79a2.23,2.23,0,0,0-1.17-4Z" transform="translate(-4.46 -10.79)"/></svg>