<svg xmlns="http://www.w3.org/2000/svg" viewBox="0 0 87.21 78.41"><defs><style>.cls-1{fill:#005fb5;opacity:0.26;}.cls-2{fill:none;stroke:#005fb5;stroke-width:2.41px;}</style></defs><title>partner-icon-2</title><g id="Layer_2" data-name="Layer 2"><g id="Layer_1-2" data-name="Layer 1"><path class="cls-1" d="M42.05,47.35V41.53L36.8,41.1a15.61,15.61,0,0,0-2.07-5.28l3.5-4.08-4.17-4.11-4,3.35a16.11,16.11,0,0,0-5.26-2.29l-.45-5.33h-5.9L18,28.53a16.08,16.08,0,0,0-5.36,2L8.51,27.11,4.33,31.23l3.4,4a15.68,15.68,0,0,0-2.32,5.18L0,40.81v5.82l5.25.43a15.56,15.56,0,0,0,2.07,5.28l-3.5,4.08L8,60.53l4-3.35a16.12,16.12,0,0,0,5.26,2.29l.45,5.33h5.9L24,59.63a16.16,16.16,0,0,0,5.36-2L33.55,61l4.17-4.11-3.4-4a15.68,15.68,0,0,0,2.32-5.18ZM21,52.67a8.59,8.59,0,1,1,8.71-8.59A8.65,8.65,0,0,1,21,52.67Z"/><path class="cls-1" d="M81.33,30.76l5.88-2.1-1.73-6.46-6,1.08A18,18,0,0,0,75.65,18l2.68-5.58L72.47,9.12,69,14a18.54,18.54,0,0,0-6.52-1L60.39,7.27,53.83,9l1.05,5.88a18.51,18.51,0,0,0-5.35,3.86L43.9,16.16,40.49,22l5,3.39a18,18,0,0,0-1,6.44l-5.88,2.11,1.73,6.46,6-1.08a17.89,17.89,0,0,0,3.87,5.25l-2.68,5.58,5.86,3.33,3.47-4.92a18.56,18.56,0,0,0,6.52,1l2.09,5.79,6.56-1.76-1.05-5.88a18.59,18.59,0,0,0,5.35-3.86l5.63,2.6,3.41-5.81-5-3.39A18.05,18.05,0,0,0,81.33,30.76Zm-16.74,7a6.68,6.68,0,1,1,4.82-8.2A6.73,6.73,0,0,1,64.6,37.73Z"/><path class="cls-2" d="M19.14,77.21A16.67,16.67,0,1,1,36,60.54,16.76,16.76,0,0,1,19.14,77.21Z"/><ellipse class="cls-2" cx="40.4" cy="19.11" rx="18.07" ry="17.91"/><ellipse class="cls-2" cx="40.4" cy="17.49" rx="4.9" ry="4.86"/><path class="cls-2" d="M44.08,22.89H36.72a4.88,4.88,0,0,0-4.91,4.86v.4a12.57,12.57,0,0,0,17.17,0v-.4A4.88,4.88,0,0,0,44.08,22.89Z"/><ellipse class="cls-2" cx="19.14" cy="58.92" rx="4.91" ry="4.86"/><path class="cls-2" d="M27.73,74.79V69.18a4.88,4.88,0,0,0-4.91-4.86H15.46a4.88,4.88,0,0,0-4.9,4.86v5.61"/><path class="cls-2" d="M61.5,77.21A16.67,16.67,0,1,1,78.32,60.54,16.76,16.76,0,0,1,61.5,77.21Z"/><ellipse class="cls-2" cx="61.5" cy="58.92" rx="4.9" ry="4.86"/><path class="cls-2" d="M70.08,74.79V69.18a4.88,4.88,0,0,0-4.9-4.86H57.82a4.88,4.88,0,0,0-4.9,4.86v5.61"/><line class="cls-2" x1="40.4" y1="31.34" x2="40.4" y2="46.31"/><line class="cls-2" x1="31.45" y1="49.83" x2="40.11" y2="44.87"/><line class="cls-2" x1="49.35" y1="49.83" x2="40.68" y2="44.87"/></g></g></svg>