<svg xmlns="http://www.w3.org/2000/svg" viewBox="0 0 84.7 73.17"><defs><style>.cls-1,.cls-2{fill:#005fb5;}.cls-1{opacity:0.26;}</style></defs><title>partner-icon-3</title><g id="Layer_2" data-name="Layer 2"><g id="Layer_1-2" data-name="Layer 1"><path class="cls-1" d="M66.94,66.61V42.56C67,42,67,41.34,67,40.72c0-9.5-6.6-24.18-16.92-28.57l2.73-10C53.06,1.33,52.25.5,51,.36S48.7.81,48.6,1.64c.12-.83-.78-1.58-2-1.64s-2.23.63-2.23,1.47c0-.83-1-1.52-2.23-1.47s-2.14.81-2,1.64C40,.81,38.92.21,37.69.36s-2,1-1.81,1.79l2.73,10C28.3,16.55,21.69,31.22,21.7,40.72a18,18,0,0,0,.07,1.86v24a2.73,2.73,0,0,0-2.16,2.68v.23a2.72,2.72,0,0,0,2.7,2.73H66.4a2.72,2.72,0,0,0,2.7-2.73v-.23A2.73,2.73,0,0,0,66.94,66.61Z"/><path class="cls-2" d="M74.58,39.42a1.32,1.32,0,0,1-.87-.47l-19-22.68a1.32,1.32,0,0,1,.08-1.78l7.75-7.77a1.32,1.32,0,1,1,1.87,1.87l-6.9,6.92L74.88,36.24l7.64-6.45a1.32,1.32,0,1,1,1.7,2l-8.65,7.31a1.32,1.32,0,0,1-1,.31Z"/><path class="cls-2" d="M33.28,37.9a4.81,4.81,0,0,1-3.05-1.52,5.85,5.85,0,0,1-.84-6.9c.77-1.33,4.35-4.44,7.34-6.76,6.72-5.22,8.39-5.05,8.94-5,2.18.22,6.18.11,7.68.07h.37a3.88,3.88,0,0,0,1.72-1,1.32,1.32,0,0,1,1.8,1.93,6.12,6.12,0,0,1-3.46,1.69h-.36c-1.69,0-5.64.14-8-.08-.61,0-3,1.29-7.27,4.6a42.07,42.07,0,0,0-6.49,5.86,3.19,3.19,0,0,0,.48,3.75c1.51,1.6,3.92.13,4.39-.18L47,27.49a1.32,1.32,0,0,1,1.46,2.2L38,36.58A7.45,7.45,0,0,1,33.28,37.9Z"/><path class="cls-2" d="M63.17,47.46a1.32,1.32,0,0,1-.62-2.39,40.7,40.7,0,0,0,4.64-3.7,12.26,12.26,0,0,0,1.93-4.42A12.68,12.68,0,0,1,70,34.56a1.32,1.32,0,1,1,2.3,1.29,12.43,12.43,0,0,0-.63,1.85c-.53,1.79-1.19,4-2.52,5.46a43.94,43.94,0,0,1-5.07,4.08A1.32,1.32,0,0,1,63.17,47.46Z"/><path class="cls-2" d="M64.67,48.08C63.25,46,50.92,33.59,49.52,32.18A1.32,1.32,0,1,0,47.65,34c5.43,5.46,13.87,14.1,14.84,15.52,1.35,2,1.94,3.28,1.44,4.84a8.9,8.9,0,0,1-1.5,1.87l-.22-.38a1.17,1.17,0,0,1-2,.12c-.24-.38-.47-.76-.69-1.14l.58,2.47a3,3,0,0,0,.39,1A2.74,2.74,0,0,1,59.34,61a2.92,2.92,0,0,1-3,.34L51,57.6l3.46,5.54c.55.88-.5,2-1.34,2.57-1,.67-2.37,1-2.87.26l-2.2,1.46a1,1,0,0,1,.12.85,3.74,3.74,0,0,1-1.77,2c-1.11.6-3.92.08-5-.93s-3.58-3.59-3.61-3.62a1.32,1.32,0,1,0-1.9,1.83c.11.11,2.61,2.71,3.72,3.73a8.41,8.41,0,0,0,4.55,1.84,6.14,6.14,0,0,0,3.5-.53A6.36,6.36,0,0,0,50.72,69h0a6,6,0,0,0,3.85-1.08,5.61,5.61,0,0,0,2.64-3.66A5.3,5.3,0,0,0,61,63a5.62,5.62,0,0,0,2.11-4.11,9,9,0,0,0,3.26-3.65C67.38,52.42,66.08,50.15,64.67,48.08Z"/><path class="cls-2" d="M50.07,68.84a1.31,1.31,0,0,1-.81-.4L42.07,61A1.32,1.32,0,1,1,44,59.15l7.19,7.45a1.32,1.32,0,0,1-1.09,2.23Z"/><path class="cls-2" d="M56.41,64.56a1.32,1.32,0,0,1-.8-.38l-7.81-7.9a1.32,1.32,0,1,1,1.88-1.86l7.81,7.9a1.32,1.32,0,0,1-1.08,2.24Z"/><path class="cls-2" d="M61.66,59a1.31,1.31,0,0,1-.79-.37l-7-6.87a1.32,1.32,0,1,1,1.86-1.88l7,6.87A1.32,1.32,0,0,1,61.66,59Z"/><path class="cls-2" d="M11.85,39.67a1.32,1.32,0,0,1-.7-.29L.48,30.64a1.32,1.32,0,1,1,1.67-2l9.72,8L30.25,17.31l-8.7-7.65a1.32,1.32,0,1,1,1.74-2L33,16.24a1.32,1.32,0,0,1,.08,1.9L12.94,39.27A1.32,1.32,0,0,1,11.85,39.67Z"/><path class="cls-2" d="M35.39,23.58l-1.24-.46a34.25,34.25,0,0,0-4.69-1.28l-1.3-.25.5-2.59,1.3.25a36.51,36.51,0,0,1,5.11,1.4l1.24.46Z"/><path class="cls-2" d="M16.37,40.15a1.32,1.32,0,0,1-1.14-1l-1-3.81a1.32,1.32,0,0,1,2.56-.65l1,3.81a1.32,1.32,0,0,1-1.42,1.64Z"/><path class="cls-2" d="M32,68.24a4.87,4.87,0,0,1-2.55-8.64l2.21-1.79a4.87,4.87,0,1,1,6.12,7.59L35.6,67.19A4.84,4.84,0,0,1,32,68.24Zm3-8.85a2.22,2.22,0,0,0-1.64.48l-2.21,1.79a2.23,2.23,0,1,0,2.8,3.48l2.21-1.79a2.23,2.23,0,0,0-1.17-4Z"/><path class="cls-2" d="M26.88,61.87a4.87,4.87,0,0,1-2.55-8.64l2.21-1.79A4.87,4.87,0,1,1,32.67,59l-2.21,1.78A4.84,4.84,0,0,1,26.88,61.87Zm3-8.85a2.22,2.22,0,0,0-1.64.48L26,55.28a2.23,2.23,0,1,0,2.8,3.48L31,57a2.23,2.23,0,0,0-1.17-4Z"/><path class="cls-2" d="M22.18,56.06a4.87,4.87,0,0,1-2.55-8.64l2.21-1.79A4.87,4.87,0,1,1,28,53.22L25.76,55A4.84,4.84,0,0,1,22.18,56.06Zm3-8.85a2.22,2.22,0,0,0-1.64.48L21.3,49.47a2.23,2.23,0,0,0,2.8,3.47l2.21-1.79a2.23,2.23,0,0,0-1.16-4Z"/><path class="cls-2" d="M16.77,49.35a4.87,4.87,0,0,1-2.55-8.64l2.21-1.79a4.87,4.87,0,1,1,6.12,7.59L20.35,48.3A4.84,4.84,0,0,1,16.77,49.35Zm3-8.85A2.22,2.22,0,0,0,18.1,41l-2.21,1.79a2.23,2.23,0,1,0,2.8,3.48l2.21-1.79a2.23,2.23,0,0,0-1.17-4Z"/></g></g></svg>