<svg xmlns="http://www.w3.org/2000/svg" viewBox="0 0 81.22 70"><defs><style>.cls-1{fill:none;}.cls-2{fill:#99ddde;}.cls-3,.cls-5{fill:#005fb5;}.cls-3{opacity:0.26;}.cls-4{fill:#fff;}</style></defs><title>privacy-policy-icon</title><g id="Layer_2" data-name="Layer 2"><g id="Layer_1-2" data-name="Layer 1"><path class="cls-1" d="M42.72,10.81H38.49A10.72,10.72,0,0,0,27.73,21.46v6.66H53.48V21.46A10.72,10.72,0,0,0,42.72,10.81Z"/><path class="cls-2" d="M39.95,36.06a3.77,3.77,0,0,0-1.94,7l.63.38-.11.73L36.86,54.91H43L41.36,44.18l-.11-.73.63-.38a3.77,3.77,0,0,0-1.93-7Z"/><path class="cls-3" d="M59.16,28.12V21.46A16.4,16.4,0,0,0,42.72,5.13H38.49A16.4,16.4,0,0,0,22.06,21.46v6.66H14.84V64.87H66.37V28.12ZM44.3,56H35.59l1.86-12a4.87,4.87,0,1,1,5,0Zm9.19-27.88H27.73V21.46A10.72,10.72,0,0,1,38.49,10.81h4.23A10.72,10.72,0,0,1,53.48,21.46Z"/><path class="cls-4" d="M44.81,39.84A4.87,4.87,0,1,0,37.45,44L35.59,56H44.3L42.44,44A4.86,4.86,0,0,0,44.81,39.84Z"/><path class="cls-5" d="M55.63,49.59,55.56,28v0a4.12,4.12,0,0,1,4.14-3.84,4.46,4.46,0,0,1,4.66,4.1V43.48H61.57V28.26c0-.68-.92-1.36-1.84-1.34a1.37,1.37,0,0,0-1.41,1.16l.07,21.5Z"/><path class="cls-5" d="M67.49,43.66l0-1.39c0-.32,0-3.43,0-3.78a1.29,1.29,0,0,0-.44-.92,1.68,1.68,0,0,0-1.16-.42,1.5,1.5,0,0,0-1.56,1.41l.06,2.85.08,1.39L61.66,43l-.08-1.39L63,41.49l-1.39.06c0-.05,0-.08,0-.15l-.06-2.79a4.27,4.27,0,0,1,4.3-4.24,4.46,4.46,0,0,1,3.07,1.14,4,4,0,0,1,1.36,3c0,1.4,0,3.53,0,3.75l0,1.39Z"/><path class="cls-5" d="M72.7,45l0-4.26a1.13,1.13,0,0,0-1.22-1,2.8,2.8,0,0,0-1.18.17v0l-.17,1.38L67.34,41l.17-1.38C67.71,37.89,69,37,71.4,37h.07a3.88,3.88,0,0,1,4,3.71l0,4.27Z"/><path class="cls-5" d="M76.73,65.22l-2.25-1.63,2.19-3,1-4.49L77.5,43.31a1,1,0,0,0-.31-.69,1,1,0,0,0-.72-.29,1,1,0,0,0-.84.36l-.74,1.17-2.35-1.49.74-1.17a3.68,3.68,0,0,1,3.14-1.65,3.79,3.79,0,0,1,2.69,1.06,3.73,3.73,0,0,1,1.16,2.65l.18,13.1-1.21,5.37Z"/><path class="cls-5" d="M55.81,62.93a1.39,1.39,0,0,1-1.07-.51l-.49-.58a13.28,13.28,0,0,1-2.72-4.24,7.93,7.93,0,0,1,0-3.84,1.39,1.39,0,0,1,2.73.5,5.4,5.4,0,0,0-.1,2.45,11.09,11.09,0,0,0,2.22,3.34l.51.6a1.39,1.39,0,0,1-1.07,2.27Z"/><rect class="cls-5" x="58.11" y="63.42" width="2.78" height="6.58"/><rect class="cls-5" x="74.57" y="62.76" width="2.78" height="6.79"/><path class="cls-5" d="M59.19,65.77a1.38,1.38,0,0,1-.89-.32l-3.5-2.91a1.39,1.39,0,1,1,1.77-2.14l3.5,2.91a1.39,1.39,0,0,1-.89,2.46Z"/><path class="cls-5" d="M51.21,54.82l-.32-1.35a25.6,25.6,0,0,0-2.66-6.33c-.45-.83-.87-1.62-1.25-2.44-1.5-3.21.1-4.7.86-5.19a4.65,4.65,0,0,1,4.81.18c5.16,3.3,5.49,7.62,5.51,7.8l.09,1.39-2.77.18-.09-1.39c0-.11-.32-3.13-4.23-5.64a2,2,0,0,0-1.8-.19c-.44.29,0,1.27.15,1.68.35.75.76,1.51,1.19,2.31a28.24,28.24,0,0,1,2.92,7l.32,1.35Z"/><path class="cls-5" d="M70.2,33.78H63.63V31H70.2c4.54,0,8.23-3.23,8.23-7.21V10c0-4-3.69-7.21-8.23-7.21H11C6.47,2.78,2.78,6,2.78,10V23.8c0,4,3.69,7.21,8.23,7.21H56.69v2.78H11c-6.07,0-11-4.48-11-10V10C0,4.48,4.94,0,11,0H70.2c6.07,0,11,4.48,11,10V23.8C81.22,29.3,76.28,33.78,70.2,33.78Z"/><path class="cls-5" d="M9.95,22a1.39,1.39,0,0,1-1.39-1.39V11.34a1.39,1.39,0,1,1,2.78,0v9.26A1.39,1.39,0,0,1,9.95,22Z"/><path class="cls-5" d="M26.21,22.38a6.25,6.25,0,1,1,6.25-6.25A6.25,6.25,0,0,1,26.21,22.38Zm0-9.72a3.47,3.47,0,1,0,3.47,3.47A3.47,3.47,0,0,0,26.21,12.66Z"/><path class="cls-5" d="M34.71,22a1.39,1.39,0,0,1-1.39-1.39V11.34a1.39,1.39,0,0,1,2.45-.89l4.72,5.66V11.34a1.39,1.39,0,1,1,2.78,0v8.61a1.39,1.39,0,0,1-2.45.89L36.1,15.17v5.42A1.39,1.39,0,0,1,34.71,22Z"/><path class="cls-5" d="M45.53,21.8a1.39,1.39,0,0,1-1.25-2l4.4-9a1.39,1.39,0,0,1,2.48,0l4.63,8.79a1.39,1.39,0,0,1-2.46,1.29L50,14.46,46.78,21A1.39,1.39,0,0,1,45.53,21.8Z"/><path class="cls-5" d="M53.22,19.67H47.43a1.39,1.39,0,1,1,0-2.78h5.78a1.39,1.39,0,0,1,0,2.78Z"/><path class="cls-5" d="M59.7,22.21a1.39,1.39,0,0,1-1.39-1.39V12.26a1.39,1.39,0,1,1,2.78,0v8.56A1.39,1.39,0,0,1,59.7,22.21Z"/><path class="cls-5" d="M63.4,13H55.3a1.39,1.39,0,1,1,0-2.78h8.1a1.39,1.39,0,1,1,0,2.78Z"/><path class="cls-5" d="M72.89,22.21h-6a1.39,1.39,0,0,1-1.39-1.39V11.57a1.39,1.39,0,1,1,2.78,0v7.87h4.63a1.39,1.39,0,0,1,0,2.78Z"/><path class="cls-5" d="M71.27,17.35h-3.7a1.39,1.39,0,1,1,0-2.78h3.7a1.39,1.39,0,1,1,0,2.78Z"/><path class="cls-5" d="M72.42,12.49H67.1a1.39,1.39,0,1,1,0-2.78h5.32a1.39,1.39,0,0,1,0,2.78Z"/><path class="cls-5" d="M14.3,22H10.41a1.39,1.39,0,0,1,0-2.78H14.3a1.92,1.92,0,0,0,1.9-1.37V14.29c0-.46-.61-1.17-1.76-1.33h-4a1.39,1.39,0,0,1,0-2.78h4.27c2.44.29,4.29,2.05,4.29,4.1v3.55A4.6,4.6,0,0,1,14.3,22Z"/></g></g></svg>