<svg xmlns="http://www.w3.org/2000/svg" viewBox="0 0 73.95 66.02"><defs><style>.cls-1,.cls-4{fill:#fff;}.cls-1,.cls-2{stroke:#005fb5;}.cls-1,.cls-2,.cls-4{stroke-linecap:round;stroke-linejoin:round;stroke-width:2px;}.cls-2{fill:none;}.cls-3{fill:#005fb5;opacity:0.26;}.cls-4{stroke:#5756ff;}</style></defs><title>students</title><g id="Layer_2" data-name="Layer 2"><g id="Layer_1-2" data-name="Layer 1"><path class="cls-1" d="M58.21,44.71h0a33.69,33.69,0,0,1-42.47,0h0V14.55H58.21Z"/><path class="cls-1" d="M58.21,40.4h0a33.69,33.69,0,0,1-42.47,0h0V10.24H58.21Z"/><path class="cls-2" d="M22.53,55.39s-6.91,7-5.9,8c2.16,2.16,10.06,2.16,12.22,0,1.15-1.15-6.12-8.2-6.12-8.2"/><path class="cls-1" d="M35.15,36.85,3.79,23.35a4.61,4.61,0,0,1,0-8.47L35.15,1.38a4.61,4.61,0,0,1,3.65,0l31.37,13.5a4.61,4.61,0,0,1,0,8.47L38.8,36.85A4.61,4.61,0,0,1,35.15,36.85Z"/><path class="cls-3" d="M58.21,33.71V28.5l12-5.15a4.61,4.61,0,0,0,0-8.47L38.8,1.38a4.61,4.61,0,0,0-3.65,0L10.79,11.88"/><path class="cls-2" d="M70.78,18.43l-32,14.12a4.61,4.61,0,0,1-3.65,0l-32-14.12"/><path class="cls-4" d="M35.15,30.7"/><path class="cls-4" d="M2.29,16.1"/><polyline class="cls-2" points="22.6 55.2 22.6 21.8 31.41 17.01"/><path class="cls-4" d="M69.18,17.63"/><path class="cls-4" d="M37.46,30.26"/></g></g></svg>